<svg width="994" height="703" viewBox="0 0 994 703" fill="none" xmlns="http://www.w3.org/2000/svg">
<path d="M642.64 28.2153C637.903 23.9576 630.796 22.9915 624.199 22.2414C589.699 18.321 555.201 14.4021 520.701 10.4817C502.473 8.41052 483.861 6.34971 465.855 9.67393C447.849 12.9981 428.434 24.0123 421.255 39.4513C495.477 46.0376 571.597 50.3678 645.991 55.0472C648.262 45.8512 649.998 34.8267 642.64 28.2153Z" fill="white"/>
<path d="M495.553 0C495.704 4.52549 495.856 9.05098 496.007 13.5765C498.559 13.0824 501.199 12.9655 503.792 13.2362C503.56 8.82463 503.328 4.41306 503.098 0H495.553Z" fill="white"/>
<path d="M606.462 0C606.638 7.81272 606.815 15.6269 606.991 23.4396C609.543 22.7059 612.183 22.5343 614.776 22.9337C614.505 15.2896 614.235 7.64407 613.964 0H606.462Z" fill="white"/>
<path d="M472.503 16.834C463.079 16.0898 453.311 19.6655 445.286 23.9011C437.67 27.9206 430.152 33.0275 425.205 39.7869C446.509 41.6524 467.964 43.333 489.486 44.8968C489.299 43.6718 489.113 42.4469 488.951 41.219C487.619 31.2359 486.526 17.9406 472.503 16.834Z" fill="#E6A34B"/>
<path d="M490.384 34.2733C490.453 34.791 490.045 36.05 490.097 36.5693C490.379 39.3964 490.767 42.2117 491.193 45.0211C542.825 48.7581 596.095 52.7539 647.274 55.9716C648.085 53.3206 648.692 53.2599 649.705 47.0952L490.384 34.2733Z" fill="#7FC3E1"/>
<path d="M620.811 384.152H489.034V142.517L618.652 149.42L620.811 384.152Z" fill="#DE32A8"/>
<path d="M618.7 154.682L489.034 236.648V332.106L619.474 238.854L618.7 154.682Z" fill="#E6A34B"/>
<path d="M489.034 332.106V384.152H620.811L619.474 238.854L489.034 332.106Z" fill="#DE32A8"/>
<path d="M489.034 142.517V168.584L528.15 144.6L489.034 142.517Z" fill="#7FC3E1"/>
<path d="M536.119 145.024L489.034 174.394V182.322L549.339 145.729L536.119 145.024Z" fill="#7FC3E1"/>
<path d="M618.983 148.277L487.411 233.661L488.341 234.869L619.914 149.485L618.983 148.277Z" fill="#022A44"/>
<path d="M497.464 382.539H751.297V195.148L498.419 235.584L497.464 382.539Z" fill="#7FC3E1"/>
<path d="M551.547 320.415C624.509 305.841 688.645 277.348 751.298 246.279V195.148L498.419 235.584L497.931 310.754C510.748 324.781 533.025 324.317 551.547 320.415Z" fill="#BDD4DF"/>
<path d="M751.702 195.271L498.823 235.709L498.757 245.874L751.702 211.722V195.271Z" fill="#022A44"/>
<path d="M497.94 371.737L497.869 382.662H751.702V363.572L497.94 371.737Z" fill="#022A44"/>
<path d="M531.04 331.4C525.216 337.97 519.392 344.54 513.569 351.11C512.789 351.99 511.589 352.968 510.477 352.465C509.85 352.181 509.558 351.524 509.344 350.917C506.098 341.726 508.815 331.663 512.831 322.727C517.212 312.98 523.13 303.81 530.351 295.592C530.983 294.873 531.65 294.108 531.776 293.194C532.166 290.345 527.31 288.568 527.761 285.726C523.999 286.492 521.207 289.316 518.835 292.09C512.207 299.841 506.699 308.482 503.487 317.869C500.276 327.256 499.431 337.421 501.965 346.979C503.014 350.935 505.245 355.293 509.576 356.254C512.824 356.974 516.135 355.503 519.009 353.944C526.306 349.985 533.03 345.149 538.955 339.601C535.728 337.41 533.012 334.597 531.04 331.4Z" fill="#022A44"/>
<path d="M528.449 293.071L526.85 292.896C527.437 288.353 528.7 285.718 529.816 283.394C531.292 280.317 532.458 277.888 531.312 272.032C530.62 268.5 529.843 265.93 529.158 263.662C527.838 259.295 526.795 255.846 527.455 248.723C528.515 237.235 531.853 231.202 540.686 224.816C542.067 223.817 543.929 222.654 546.1 222.508C548.246 222.329 553.728 225.584 554.203 227.677L552.625 227.979C552.348 226.755 547.757 223.896 546.215 223.983C544.48 224.1 542.881 225.11 541.681 225.977C533.259 232.068 530.074 237.839 529.057 248.849C528.423 255.709 529.381 258.879 530.709 263.267C531.404 265.566 532.19 268.171 532.895 271.772C534.128 278.071 532.811 280.814 531.287 283.991C530.22 286.22 529.008 288.747 528.449 293.071Z" fill="#022A44"/>
<path d="M519.899 270.793C517.595 271.612 516.022 273.549 514.726 275.471C510.84 281.228 508.277 287.729 507.251 294.428C506.777 297.523 506.675 300.859 508.374 303.57C510.803 307.449 516.406 308.929 521.208 308.068C526.009 307.207 530.14 304.473 533.844 301.552C536.854 299.181 539.744 296.586 541.651 293.402C543.559 290.219 544.391 286.349 543.125 282.907C541.228 277.744 535.369 274.86 530.007 272.473C526.834 271.06 523.188 269.621 519.899 270.793Z" fill="#DE32A8"/>
<path d="M528.023 326.171C526.527 329.695 525.36 333.481 525.943 337.222C526.527 340.965 529.241 344.64 533.253 345.574C537.231 346.5 541.311 344.627 544.742 342.569C548.395 340.379 551.842 337.904 555.036 335.182C556.809 333.67 558.575 331.969 559.141 329.815C559.916 326.853 558.224 323.816 556.165 321.419C553.222 317.99 549.405 315.188 545.103 313.3C542.955 312.357 540.468 311.635 538.216 312.351C536.329 312.95 534.971 314.447 533.833 315.946C531.432 319.11 529.546 322.584 528.023 326.171Z" fill="#DE32A8"/>
<path d="M509.629 292.025C509.055 294.009 508.544 296.073 508.897 298.1C509.252 300.127 510.667 302.125 512.817 302.69C514.537 303.142 516.423 302.603 517.882 301.655C519.342 300.705 520.458 299.384 521.549 298.083C524.56 294.496 527.572 290.908 530.583 287.319C532.174 285.423 533.855 283.241 533.493 280.871C533.082 278.184 530.258 276.462 527.706 275.094C524.884 273.582 521.391 272.045 518.523 273.481C516.752 274.369 515.79 276.159 514.987 277.859C512.821 282.451 511.027 287.189 509.629 292.025Z" fill="white"/>
<path d="M572.47 257.197L571.667 257.144C572.377 248.078 572.452 246.603 572.528 245.178C572.606 243.7 572.68 242.304 573.407 233.062C573.702 229.316 574.069 224.655 576.974 221.233C578.623 219.292 581.434 217.991 584.135 217.917C586.172 217.854 588.002 218.527 589.216 219.796L588.611 220.284C587.26 218.876 585.439 218.614 584.158 218.657C581.685 218.724 579.114 219.915 577.607 221.688C574.852 224.933 574.495 229.47 574.208 233.117C573.482 242.35 573.408 243.742 573.331 245.215C573.258 246.641 573.181 248.121 572.47 257.197Z" fill="#022A44"/>
<path d="M580.414 246.753C575.907 249.994 567.316 261.437 565.079 266.26C559.441 278.413 553.738 290.793 552.25 303.921C553.738 303.766 555.143 304.477 556.515 305.023C557.887 305.569 559.565 305.943 560.812 305.189C561.539 304.75 561.968 304.011 562.368 303.303C563.44 301.402 564.51 299.502 565.582 297.601C566.16 296.573 566.752 295.508 566.829 294.354C566.92 292.996 566.289 291.695 565.938 290.373C565.585 289.05 565.59 287.472 566.675 286.54C568.897 286.544 570.957 285.338 572.372 283.773C573.789 282.208 574.666 280.305 575.524 278.433C576.459 276.391 577.411 274.278 577.4 272.065C577.387 269.593 576.178 267.27 575.667 264.843C574.945 261.419 580.641 251.577 582.63 248.602C581.487 248.06 581.557 247.294 580.414 246.753Z" fill="#022A44"/>
<path d="M557.263 303.743C557.879 303.689 558.417 303.313 558.775 302.851C559.133 302.39 559.339 301.847 559.539 301.313C560.525 298.69 561.51 296.068 562.496 293.445C562.795 292.652 563.096 291.836 563.059 290.997C563.02 290.159 562.566 289.282 561.724 288.945C560.762 288.56 559.595 289.004 558.912 289.733C558.228 290.463 557.919 291.415 557.627 292.337C556.905 294.614 556.184 296.891 555.462 299.169C555.169 300.094 554.874 301.064 555.088 302.006C555.304 302.949 556.213 303.835 557.263 303.743Z" fill="#DE32A8"/>
<path d="M562.782 281.637C563.138 282.209 563.883 282.464 564.57 282.662C565.284 282.868 566.059 283.061 566.767 282.836C567.529 282.594 568.019 281.93 568.425 281.292C570.424 278.16 571.752 274.715 573.016 271.278C573.383 270.276 573.747 269.185 573.367 268.187C573.082 267.437 572.402 266.856 571.638 266.476C570.874 266.097 570.021 265.896 569.179 265.698C566.528 270.09 564.392 274.743 562.821 279.549C562.598 280.236 562.395 281.014 562.782 281.637Z" fill="#4E93B3"/>
<path d="M360.268 337.462C357.732 333.559 351.2 333.891 346.956 336.25C340.334 339.933 336.664 346.768 334.237 353.49C325.276 378.295 328.674 405.308 324.316 431.123C332.646 430.759 340.976 430.395 349.306 430.031C346.032 406.543 345.776 382.75 347.583 359.129C347.918 354.749 348.345 350.289 350.205 346.238C352.064 342.19 355.608 338.551 360.268 337.462Z" fill="#022A44"/>
<path d="M437.602 433.712C437.709 433.234 437.765 432.738 437.765 432.232C437.765 428.148 434.156 424.835 429.706 424.835H280.207C275.757 424.835 272.148 428.148 272.148 432.232C272.148 432.738 272.205 433.234 272.311 433.712H437.602Z" fill="#022A44"/>
<path d="M275.372 377.494H270.536V475.135H275.372V377.494Z" fill="#022A44"/>
<path d="M285.58 377.494H280.744V475.135H285.58V377.494Z" fill="#022A44"/>
<path d="M312.981 377.494H308.145V475.135H312.981V377.494Z" fill="#022A44"/>
<path d="M300.418 472.916H237.408L234.803 668.937H338.353V516.004C338.353 492.207 321.369 472.916 300.418 472.916Z" fill="#5B649D"/>
<path d="M237.231 486.231L237.171 490.669H331.095C330.091 489.102 328.985 487.627 327.809 486.231H237.231Z" fill="white"/>
<path d="M227.639 472.916V668.937H253.689V491.409C253.689 481.195 246.401 472.916 237.408 472.916H227.639Z" fill="#022A44"/>
<path d="M322.986 584.814C322.986 589.561 318.771 593.409 313.573 593.409H277.805C272.606 593.409 268.391 589.561 268.391 584.814V552.153C268.391 547.405 272.606 543.557 277.805 543.557H313.573C318.771 543.557 322.986 547.405 322.986 552.153V584.814Z" fill="#393973"/>
<path d="M322.986 641.109C322.986 645.857 318.771 649.705 313.573 649.705H277.805C272.606 649.705 268.391 645.857 268.391 641.109V608.448C268.391 603.701 272.606 599.853 277.805 599.853H313.573C318.771 599.853 322.986 603.701 322.986 608.448V641.109Z" fill="#393973"/>
<path d="M331.333 506.08C331.333 507.646 329.942 508.916 328.227 508.916H266.119C264.404 508.916 263.013 507.646 263.013 506.08C263.013 504.513 264.404 503.244 266.119 503.244H328.227C329.942 503.244 331.333 504.513 331.333 506.08Z" fill="#393973"/>
<path d="M331.333 521.366C331.333 522.933 329.942 524.202 328.227 524.202H266.119C264.404 524.202 263.013 522.933 263.013 521.366C263.013 519.8 264.404 518.53 266.119 518.53H328.227C329.942 518.53 331.333 519.8 331.333 521.366Z" fill="#393973"/>
<path d="M293.874 588.067C282.369 588.067 273.009 579.328 273.009 568.584C273.009 557.843 282.577 549.105 294.337 549.105C305.613 549.105 314.581 557.271 315.661 568.519C316.111 573.197 314.43 577.752 310.926 581.347C306.901 585.476 300.861 587.923 294.354 588.062L293.874 588.067ZM294.338 550.585C283.466 550.585 274.622 558.659 274.622 568.584C274.622 578.511 283.258 586.587 293.876 586.587L294.321 586.583C300.384 586.454 306 584.186 309.728 580.361C312.931 577.075 314.469 572.916 314.059 568.65C313.052 558.183 304.757 550.585 294.338 550.585Z" fill="#DE32A8"/>
<path d="M294.338 645.019C282.578 645.019 273.01 636.282 273.01 625.541C273.01 614.8 282.578 606.062 294.338 606.062C306.098 606.062 315.666 614.8 315.666 625.541C315.666 636.282 306.098 645.019 294.338 645.019ZM294.338 607.542C283.466 607.542 274.622 615.616 274.622 625.541C274.622 635.465 283.466 643.54 294.338 643.54C305.21 643.54 314.054 635.465 314.054 625.541C314.054 615.616 305.21 607.542 294.338 607.542Z" fill="#DE32A8"/>
<path d="M655.804 655.813C655.265 655.813 654.727 655.781 654.187 655.719L622.24 651.995C617.078 651.393 612.792 647.91 611.572 643.327L557.704 440.895C557.388 439.704 558.181 438.504 559.48 438.212C560.778 437.916 562.085 438.652 562.402 439.843L616.27 642.275C617.018 645.085 619.661 647.221 622.85 647.592L654.796 651.316C657.087 651.581 659.36 650.934 661.058 649.542C662.703 648.193 663.628 646.273 663.595 644.274L660.494 444.825C660.475 443.6 661.542 442.591 662.878 442.575C662.891 442.575 662.902 442.575 662.912 442.575C664.232 442.575 665.311 443.547 665.33 444.763L668.431 644.212C668.481 647.499 666.969 650.649 664.281 652.853C661.939 654.77 658.92 655.813 655.804 655.813Z" fill="#7FC3E1"/>
<path d="M672.936 432.349H187.404V441.729H672.936V432.349Z" fill="#7FC3E1"/>
<path d="M582.332 423.548H356.582V432.471H582.332V423.548Z" fill="#6584C6"/>
<path d="M582.332 423.548H356.582V426.151H582.332V423.548Z" fill="#DE32A8"/>
<path d="M227.818 691.252C225.456 691.252 223.1 690.765 220.94 689.799L197.792 679.436C193.435 677.485 190.816 673.206 191.276 668.792L214.97 440.897C215.097 439.677 216.283 438.77 217.607 438.899C218.936 439.016 219.91 440.098 219.784 441.319L196.09 669.214C195.821 671.797 197.359 674.303 199.913 675.448L223.061 685.809C225.817 687.045 228.909 687.156 231.767 686.133C234.607 685.114 236.776 683.123 237.876 680.528L340.69 438.085C341.174 436.941 342.573 436.372 343.82 436.822C345.065 437.265 345.68 438.552 345.197 439.693L242.382 682.136C240.808 685.846 237.581 688.81 233.528 690.264C231.694 690.924 229.755 691.252 227.818 691.252Z" fill="#7FC3E1"/>
<path d="M672.936 437.774H187.404V447.154H672.936V437.774Z" fill="#022A44"/>
<path d="M443.959 112.406L395.104 108.789V212.295H443.959V112.406Z" fill="#E6A34B"/>
<path d="M429.902 122.977C426.08 121.444 422.804 118.802 420.665 115.528C420.855 118.558 417.659 120.862 414.535 121.9C411.411 122.937 407.918 123.349 405.339 125.265C401.197 128.344 401.003 133.955 401.16 138.83C401.756 157.512 402.352 176.194 402.947 194.874C403.01 196.867 403.112 198.973 404.3 200.647C405.675 202.582 408.229 203.528 410.707 203.983C413.182 204.437 415.755 204.523 418.141 205.282C420.526 206.041 422.799 207.694 423.213 209.97C423.664 207.37 426.059 205.15 428.9 204.7C431.543 204.282 434.56 205.209 436.77 203.82C438.943 202.453 439.096 199.627 439.03 197.219C438.435 175.571 437.842 153.924 437.247 132.276C437.184 129.964 437.033 127.438 435.342 125.713C433.949 124.295 431.817 123.744 429.902 122.977Z" fill="#DE32A8"/>
<path d="M441.743 148.843C441.628 148.072 441.467 147.301 441.306 146.529C440.914 144.662 440.545 142.898 440.845 141.154L440.98 140.361L432.062 139.74C432.004 138.308 431.959 136.914 431.949 135.612L404.917 133.948C404.952 135.253 404.988 136.553 405.025 137.858L396.893 137.291L396.761 137.945C396.36 139.945 396.418 141.497 396.474 142.999C396.51 143.955 396.543 144.859 396.46 145.85C396.155 149.422 397.288 152.244 399.569 153.593C402.34 155.232 404.354 156.18 405.807 156.531C405.981 157.17 406.245 157.783 406.653 158.34C408.013 160.197 410.526 160.872 412.792 161.187C415.039 161.499 417.407 161.651 419.285 162.907C419.042 169.957 418.798 177.013 418.553 184.076C418.498 185.677 418.421 187.356 417.572 188.723C416.488 190.467 414.393 191.346 412.586 192.455C410.99 193.435 409.435 194.957 409.335 196.698H430.742C430.465 195.459 429.515 194.256 428.461 193.417C426.867 192.146 424.897 191.09 424.072 189.226C423.566 188.082 423.579 186.8 423.602 185.563C423.708 179.502 423.642 171.003 423.748 164.944C423.788 162.693 424.196 162.529 426.121 161.419C427.594 160.57 429.631 160.914 431.019 159.977C431.719 159.503 432.122 158.793 432.365 157.984C432.934 158.024 433.508 158.061 434.085 158.061C436.23 158.061 437.815 157.669 439.07 156.828C441.3 155.337 442.273 152.427 441.743 148.843ZM400.443 152.349C397.933 150.865 397.946 147.39 398.067 145.965C398.159 144.89 398.121 143.901 398.084 142.947C398.038 141.697 397.989 140.411 398.229 138.868L405.065 139.345C405.194 144.012 405.322 148.68 405.451 153.341C405.465 153.856 405.486 154.38 405.533 154.904C404.485 154.54 402.884 153.794 400.443 152.349ZM438.121 155.633C437.154 156.281 435.871 156.583 434.085 156.583C433.6 156.583 433.118 156.55 432.639 156.518C432.696 155.916 432.71 155.3 432.705 154.71C432.671 150.644 432.343 145.78 432.13 141.228L439.157 141.718C439.022 143.447 439.38 145.151 439.726 146.808C439.883 147.553 440.039 148.297 440.149 149.042C440.358 150.474 440.584 153.985 438.121 155.633Z" fill="#022A44"/>
<path d="M433.497 156.266C422.578 156.704 411.985 161.755 405.352 169.686C402.888 172.633 400.92 176.047 400.502 179.735C400.404 180.604 400.539 181.697 401.431 182.014C401.809 182.148 402.235 182.096 402.633 182.17C403.821 182.388 404.445 183.631 404.474 184.736C404.504 185.841 404.137 186.936 404.209 188.039C404.267 188.925 404.774 189.924 405.733 190.073C406.569 190.205 407.324 189.64 407.957 189.125C416.252 182.4 426.532 177.738 437.413 175.768C437.067 174.926 436.715 174.065 436.695 173.165C436.675 172.266 437.048 171.307 437.876 170.819C438.49 170.457 439.362 170.322 439.641 169.704C439.875 169.187 439.535 168.587 439.056 168.239C438.577 167.891 437.979 167.717 437.444 167.449C435.41 166.43 434.48 163.9 435.428 161.966C435.797 161.212 436.398 160.573 436.823 159.843C437.249 159.114 437.488 158.21 437.081 157.47C436.474 156.371 434.846 156.213 433.497 156.266Z" fill="#7FC3E1"/>
<path d="M378.588 71.4004L226.828 60.1643V381.687H378.588V71.4004Z" fill="#E6A34B"/>
<path d="M378.588 91.884L226.828 146.978V155.099L378.588 96.9539V91.884Z" fill="#BA782A"/>
<path d="M378.588 109.129L226.828 165.286V206.233L378.588 143.753V109.129Z" fill="#BA782A"/>
<path d="M378.588 153.031L226.828 217.911V226.282L378.588 156.404V153.031Z" fill="#BA782A"/>
<path d="M226.828 266.276L378.588 185.938V175.563L226.828 245.439V266.276Z" fill="#BA782A"/>
<path d="M378.588 74.1269L226.828 129.221V137.342L378.588 79.1968V74.1269Z" fill="#BDD4DF"/>
<path d="M378.588 86.5627L226.828 142.721V183.666L378.588 121.188V86.5627Z" fill="#BDD4DF"/>
<path d="M378.588 130.465L226.828 195.346V203.717L378.588 133.839V130.465Z" fill="#BDD4DF"/>
<path d="M226.828 243.711L378.588 163.373V152.998L226.828 222.873V243.711Z" fill="#BDD4DF"/>
<path d="M378.588 96.954L226.828 155.099V165.286L378.588 109.129V96.954Z" fill="#E6A34B"/>
<path d="M378.588 143.753L226.828 206.233V217.911L378.588 153.031V143.753Z" fill="#E6A34B"/>
<path d="M356.986 161.995H307.57V287.251H356.986V161.995Z" fill="#393973"/>
<path d="M226.828 381.687H378.588V185.939L226.828 266.276V381.687Z" fill="#E6A34B"/>
<path d="M354.683 165.446H307.609V166.925H354.683V165.446Z" fill="#022A44"/>
<path d="M356.514 190.843V189.364H308.147V190.843H321.042V201.938H320.504V203.418H321.041V211.556H322.652V203.418H343.95V201.938H329.1V190.843H356.514ZM327.488 201.938H322.652V190.843H327.488V201.938Z" fill="#022A44"/>
<path d="M378.588 71.4004L226.828 60.1643V146.979L378.588 91.8842V71.4004Z" fill="#E6A34B"/>
<path d="M255.857 94.9288C263.686 94.9288 270.033 89.1332 270.033 81.984C270.033 74.8348 263.686 69.0392 255.857 69.0392C248.028 69.0392 241.681 74.8348 241.681 81.984C241.681 89.1332 248.028 94.9288 255.857 94.9288Z" fill="#DE32A8"/>
<path d="M350.327 102.187C345.986 97.5013 339.265 95.2822 332.711 93.9167C317.317 90.7079 301.222 91.1399 285.639 93.4685C275.52 94.9804 265.164 97.4525 257.282 103.44C247.109 111.168 242.674 123.487 240.28 135.371C239.635 138.572 239.166 142.11 241.041 144.879C243.088 147.903 247.488 149.057 251.324 148.449C255.161 147.841 258.531 145.799 261.595 143.605C267.377 139.465 272.546 134.593 278.716 130.948C284.886 127.304 292.475 124.941 299.599 126.588C306.005 128.069 311.017 132.491 315.708 136.742C321.942 142.395 324.149 145.74 330.385 151.393C332.083 152.932 339.942 156.959 342.334 156.941C345.595 156.916 348.324 153.849 349.692 151.146C353.994 142.654 354.321 133.497 355.403 124.193C356.292 116.526 355.78 108.073 350.327 102.187Z" fill="#022A44"/>
<path d="M332.294 95.556C329.444 92.8324 325.225 91.998 321.242 91.4817C307.66 89.7242 293.765 90.2286 280.361 92.967C271.236 94.8311 262.113 97.8431 254.96 103.599C245.29 111.38 240.266 123.352 237.958 135.269C237.326 138.536 237.176 142.567 240.018 144.459C241.713 145.588 244.033 145.524 245.944 144.78C247.856 144.036 249.445 142.703 250.97 141.369C257.688 135.497 264.025 129.09 271.763 124.523C279.501 119.956 289.1 117.385 297.751 120.039C303.594 121.832 308.436 125.805 312.639 130.1C316.841 134.395 320.595 139.115 325.202 143.008C327.106 144.617 329.327 146.141 331.861 146.221C334.341 146.299 336.701 144.921 338.221 143.034C339.741 141.148 339.283 137.642 339.78 135.305C342.072 124.512 341.939 116.26 338.625 105.717C337.666 102.659 334.651 97.8091 332.294 95.556Z" fill="#393973"/>
<path d="M324.785 124.193C320.153 124.193 315.693 121.62 313.94 117.938C312.828 115.599 312.616 112.733 313.293 109.177C314.448 103.104 317.848 98.8402 322.383 97.772C326.503 96.8045 331.432 98.7529 334.471 102.459C337.549 106.214 338.571 111.181 337.135 115.423C335.604 119.95 331.294 123.431 326.411 124.085C325.879 124.157 325.333 124.193 324.785 124.193ZM324.64 98.9955C324.008 98.9955 323.383 99.0665 322.785 99.2085C317 100.571 315.273 107.379 314.882 109.434C314.261 112.696 314.437 115.285 315.419 117.349C316.922 120.509 320.775 122.716 324.787 122.716C325.257 122.716 325.726 122.685 326.181 122.625C330.463 122.051 334.248 118.982 335.599 114.986C336.882 111.192 335.958 106.733 333.186 103.352C330.981 100.664 327.707 98.9955 324.64 98.9955Z" fill="#022A44"/>
<path d="M256.991 123.853C255.609 123.853 254.381 123.542 253.341 122.93C251.491 121.841 250.311 119.728 250.266 117.416C250.23 115.633 250.804 113.732 252.02 111.602C255.542 105.43 262.381 100.872 269.864 99.7073C273.533 99.1378 276.599 99.8153 278.264 101.626C280.991 104.592 279.257 108.951 276.723 112.04C273.074 116.49 268.243 120.095 262.753 122.466C260.62 123.387 258.681 123.853 256.991 123.853ZM272.35 100.987C271.647 100.987 270.902 101.048 270.132 101.168C263.133 102.256 256.739 106.519 253.446 112.288C252.36 114.192 251.846 115.861 251.876 117.388C251.913 119.212 252.806 120.857 254.21 121.684C254.987 122.141 255.922 122.373 256.989 122.373C258.443 122.373 260.15 121.955 262.063 121.128C267.318 118.858 271.94 115.408 275.432 111.149C277.492 108.637 279.145 104.885 277.027 102.579C275.818 101.264 273.817 100.987 272.35 100.987Z" fill="#022A44"/>
<path d="M286.438 101.355C285.738 101.355 285.071 101.191 284.505 100.882C283.077 100.096 282.45 98.3831 283.109 97.0605C283.67 95.9361 285.051 95.2112 286.629 95.2112C288.106 95.2497 289.318 95.7497 290.387 96.1906L290.819 96.3681L290.859 96.8001C291.004 98.3283 290.195 99.861 288.801 100.704C288.107 101.124 287.268 101.355 286.438 101.355ZM286.713 96.6906C285.848 96.6906 284.914 96.9954 284.574 97.6744C284.258 98.3106 284.611 99.2145 285.332 99.6125C285.646 99.7841 286.028 99.8758 286.438 99.8758C286.957 99.8758 287.48 99.7308 287.914 99.469C288.681 99.0059 289.187 98.1878 289.257 97.3475C288.427 97.0132 287.576 96.7158 286.72 96.6921C286.716 96.6906 286.713 96.6906 286.713 96.6906Z" fill="#022A44"/>
<path d="M300.228 100.407C299.528 100.407 298.861 100.243 298.295 99.9337C296.867 99.1482 296.24 97.435 296.899 96.1125C297.458 94.9881 298.841 94.2617 300.423 94.2617C301.896 94.3017 303.108 94.8002 304.177 95.2411L304.609 95.4186L304.649 95.8506C304.794 97.3788 303.985 98.9115 302.59 99.7547C301.897 100.176 301.058 100.407 300.228 100.407ZM300.503 95.7411C299.639 95.7411 298.703 96.0459 298.364 96.7249C298.047 97.3611 298.401 98.2665 299.122 98.6629C299.436 98.836 299.818 98.9278 300.226 98.9278C300.745 98.9278 301.269 98.7828 301.702 98.5209C302.47 98.0579 302.976 97.2397 303.043 96.398C302.213 96.0651 301.362 95.7663 300.506 95.7426L300.503 95.7411Z" fill="#022A44"/>
<path d="M480.047 382.909H192.729V195.518L478.967 235.954L480.047 382.909Z" fill="#7FC3E1"/>
<path d="M192.729 247.473V382.909H480.047L479.526 312.157C379.592 326.462 275.715 298.102 192.729 247.473Z" fill="#6584C6"/>
<path d="M480.586 235.709L194.349 195.271V210.21L480.643 243.473L480.586 235.709Z" fill="#022A44"/>
<path d="M194.349 364.131V382.662H481.666L481.583 371.18L194.349 364.131Z" fill="#022A44"/>
<path d="M453.741 351.469C453.748 352.328 453.013 352.99 452.099 352.947L230.166 342.647C229.253 342.604 228.507 341.875 228.501 341.015C228.494 340.156 229.229 339.495 230.143 339.537L452.076 349.837C452.99 349.879 453.735 350.609 453.741 351.469Z" fill="white"/>
<path d="M248.182 329.414L427.195 338.66C423.916 325.883 412.796 303.851 402.395 297.141C398.852 294.855 394.713 293.334 392.05 289.954C389.026 286.118 388.568 280.629 389.328 275.686C390.087 270.744 391.9 266.056 392.937 261.171C393.841 256.91 393.712 251.526 390.182 249.301C388.419 248.189 386.244 248.201 384.197 248.309C374.431 248.823 364.733 250.798 355.476 254.157C348.924 256.534 340.947 259.357 335.727 254.513C330.123 249.313 331.374 237.971 324.685 234.519C321.316 232.781 317.323 233.939 313.75 235.127C282.134 245.635 249.194 257.414 226.454 283.061C223.675 286.195 220.934 289.906 220.932 294.216C220.93 298.966 224.225 302.896 227.318 306.319C234.273 314.018 241.227 321.717 248.182 329.414Z" fill="white"/>
<path d="M386.405 313.534C389.211 313.883 392.071 314.289 394.55 315.377C397.029 316.466 399.097 318.373 399.305 320.594C399.621 323.97 395.826 326.618 392.327 328.605C389.292 330.327 384.48 334.46 381.349 336.071L387.393 337.551C388.571 337.129 390.617 335.332 393.639 333.852C396.534 332.435 399.625 330.134 402.145 328.393C404.664 326.652 406.558 324.162 406.435 321.532C406.223 316.941 400.981 312.481 395.599 310.658C368.741 301.56 337.679 304.576 308.419 304.847C304.834 304.881 300.063 304.075 299.894 301.268C299.775 299.316 302.167 297.906 304.325 296.928C332.784 284.032 366.528 281.11 398.966 276.938C401.977 276.551 405.72 275.549 405.884 273.16C406.02 271.192 403.521 269.812 401.297 268.892C374.769 257.92 343.459 254.215 313.982 258.56L303.248 269.907L330.551 272.003C331.847 272.102 333.284 272.259 334.107 273.049C335.168 274.067 334.608 275.688 333.369 276.573C332.129 277.457 330.427 277.795 328.803 278.117C309.626 281.924 291.111 287.767 273.921 295.438C271.4 296.562 268.86 297.758 266.961 299.477C265.061 301.196 263.874 303.548 264.522 305.766C265.228 308.18 267.978 309.972 270.968 310.776C273.958 311.581 277.191 311.566 280.352 311.531C315.761 311.132 351.43 309.186 386.405 313.534Z" fill="#BDD4DF"/>
<path d="M421.014 257.666L420.825 259.135L465.178 263.931L465.367 262.462L421.014 257.666Z" fill="white"/>
<path d="M465.201 276.142C457.817 275.342 450.299 274.67 443.03 274.021C435.751 273.371 428.223 272.698 420.823 271.896L421.012 270.427C428.397 271.226 435.915 271.899 443.186 272.549C450.465 273.198 457.991 273.871 465.391 274.673L465.201 276.142Z" fill="white"/>
<path d="M465.201 288.347C457.812 287.547 450.417 286.794 443.022 286.041C435.62 285.288 428.218 284.533 420.823 283.733L421.012 282.264C428.404 283.064 435.802 283.817 443.201 284.572C450.599 285.325 457.999 286.078 465.391 286.88L465.201 288.347Z" fill="white"/>
<path d="M465.2 300.552C457.818 299.753 450.354 299.129 443.134 298.524C435.905 297.919 428.428 297.295 421.025 296.491L421.213 295.022C428.595 295.821 436.062 296.445 443.281 297.051C450.51 297.656 457.986 298.281 465.391 299.083L465.2 300.552Z" fill="white"/>
<path d="M420.787 308.335L420.598 309.804L464.951 314.6L465.14 313.131L420.787 308.335Z" fill="white"/>
<path d="M312.425 270.677C313.829 260.563 318.687 250.871 326.155 243.291C324.069 242.366 321.982 241.44 319.896 240.515C311.935 247.241 301.278 250.686 290.649 252.654C280.019 254.623 269.134 255.286 258.53 257.363C245.377 259.938 232.741 264.698 221.422 271.337C235.89 271.782 250.111 267.465 264.587 267.52C268.873 267.536 273.353 267.997 276.931 270.152C279.254 271.552 281.115 273.617 283.688 274.584C285.77 275.367 288.096 275.343 290.348 275.306C296.257 275.21 302.166 275.114 308.075 275.019C308.911 275.006 309.787 274.982 310.515 274.605C311.932 273.87 312.221 272.155 312.425 270.677Z" fill="#393973"/>
<path d="M306.084 254.74C312.699 254.698 319.316 254.657 325.931 254.614C311.592 254.189 297.221 254.694 282.961 256.12C282.497 257.568 282.032 259.015 281.568 260.464C286.484 261.916 291.7 262.381 296.865 262.301C307.738 262.134 318.383 259.609 328.903 257.099C328.858 256.24 328.811 255.379 328.766 254.519L306.084 254.74Z" fill="#6584C6"/>
<path d="M295.788 265.156C301.866 265.118 307.943 265.079 314.021 265.041C300.849 264.65 287.645 265.113 274.544 266.424C274.117 267.754 273.691 269.084 273.264 270.414C277.781 271.748 282.573 272.176 287.318 272.102C297.306 271.948 307.085 269.628 316.753 267.322C316.711 266.532 316.669 265.742 316.628 264.952L295.788 265.156Z" fill="#6584C6"/>
<path d="M302.595 258.444C295.833 258.444 289.067 257.925 282.329 256.887L282.463 256.157C297.443 258.467 312.58 258.188 327.446 255.333L327.612 256.057C319.331 257.648 310.967 258.444 302.595 258.444Z" fill="#393973"/>
<path d="M293.194 268.362C287.019 268.362 280.839 267.983 274.693 267.226L274.8 266.494C288.363 268.164 302.088 267.98 315.592 265.943L315.723 266.673C308.26 267.798 300.729 268.362 293.194 268.362Z" fill="#393973"/>
<path d="M290.77 259.906C290.821 259.444 290.346 259.086 289.896 258.875C288.355 258.148 286.571 258.029 284.843 257.923C284.181 257.884 283.388 257.9 283.027 258.412C282.706 258.867 282.936 259.509 283.381 259.867C283.826 260.225 284.424 260.365 285 260.486C286.534 260.81 288.139 261.088 289.669 260.745C290.162 260.632 290.717 260.372 290.77 259.906Z" fill="#393973"/>
<path d="M275.674 267.926C275.076 268.239 274.671 268.841 274.634 269.473C276.715 270.287 279.014 270.626 281.267 270.454C281.572 270.43 281.883 270.396 282.155 270.269C282.428 270.142 282.657 269.902 282.677 269.623C282.715 269.117 282.118 268.788 281.601 268.611C280.029 268.071 277.352 267.967 275.674 267.926Z" fill="#393973"/>
<path d="M322.925 246.857C321.188 246.65 319.418 246.677 317.69 246.939C319.405 247.315 321.225 247.287 322.925 246.857Z" fill="white"/>
<path d="M313.237 250.674C315.473 250.923 317.754 250.825 319.952 250.386C317.723 250.075 315.426 250.174 313.237 250.674Z" fill="white"/>
<path d="M305.894 271.7C307.909 272.049 310.008 271.988 311.995 271.525C309.976 271.216 307.89 271.276 305.894 271.7Z" fill="white"/>
<path d="M262.174 259.299C256.581 260.687 250.829 261.536 245.042 261.826C249.292 260.151 253.789 259.005 258.372 258.423C259.74 258.25 261.409 258.244 262.174 259.299Z" fill="#6584C6"/>
<path d="M354.621 354.686C354.621 356.525 352.998 358.015 350.995 358.015H340.518C338.514 358.015 336.891 356.525 336.891 354.686C336.891 352.847 338.514 351.358 340.518 351.358H350.995C352.997 351.358 354.621 352.849 354.621 354.686Z" fill="#7FC3E1"/>
<path d="M360.666 336.071L382.695 336.688C381.133 332.009 378.466 324.493 376.902 319.812C376.257 317.88 375.543 315.843 374.073 314.595C372.516 313.274 370.431 313.105 368.477 312.989C365.348 312.803 362.218 312.617 359.09 312.43C358.339 312.386 357.457 312.404 357.004 313.074C356.612 313.654 356.724 314.467 356.854 315.179C357.992 321.403 359.526 329.847 360.666 336.071Z" fill="#6584C6"/>
<path d="M381.642 325.098C380.698 320.516 378.549 315.028 374.257 311.314C368.93 311.334 363.603 311.354 358.275 311.374C355.226 315.208 355.49 320.345 356.024 325.098H381.642Z" fill="#393973"/>
<path d="M292.779 303.028C293.648 299.605 296.689 296.888 300.197 295.476C303.704 294.065 307.635 293.804 311.462 293.939C315.288 294.075 319.094 294.586 322.924 294.634C324.266 296.796 325.611 298.959 326.953 301.12L292.779 303.028Z" fill="#6584C6"/>
<path d="M365.366 336.564C364.164 329.248 361.802 319.219 360.6 311.902C360.179 309.347 359.691 306.634 358.077 304.76C356.124 302.489 353.06 302.046 350.247 301.78C332.443 300.09 314.548 300.159 296.679 300.228C293.539 300.24 290.312 300.27 287.393 301.558C284.492 302.838 282.131 305.255 279.842 307.619C272.232 315.484 264.468 323.594 259.715 333.85L365.366 336.564Z" fill="#393973"/>
<path d="M268.924 334.469C271.302 325.755 274.513 316.738 278.674 308.9C278.757 304.941 265.63 307.004 260.18 310.548C257.421 312.343 255.291 315.124 253.443 318.03C250.359 322.878 247.912 328.226 246.191 333.85L268.924 334.469Z" fill="#6584C6"/>
<path d="M282.902 321.647C282.227 318.33 282.833 314.803 284.627 311.852L282.39 308.702C282.088 308.42 281.814 308.112 281.567 307.788C280.499 306.368 278.671 305.601 276.809 305.842C269.951 306.73 262.506 305.487 256.597 308.721C251.626 311.442 249.14 316.59 247.174 321.647H282.902Z" fill="#393973"/>
<path d="M371.368 267.059C354.907 280.625 337.583 293.319 319.512 305.057C318.229 305.89 316.911 306.749 316.055 307.957C315.199 309.164 314.907 310.821 315.765 312.026C316.669 313.296 318.584 313.692 320.204 313.364C321.824 313.037 323.221 312.134 324.573 311.257C344.968 298.02 366.054 285.669 387.735 274.262C384.919 270.328 383.728 265.449 384.449 260.796C381.26 261.135 378.132 261.932 375.213 263.149L371.368 267.059Z" fill="#6584C6"/>
<path d="M376.554 259.892C374.317 262.471 372.108 265.07 369.932 267.692C368.867 268.974 367.781 270.321 367.439 271.899C367.136 273.3 367.453 274.756 367.963 276.105C368.97 278.77 371.191 281.438 374.273 281.606C375.769 281.687 377.216 281.16 378.604 280.643C381.043 279.733 383.482 278.823 385.922 277.913C387.166 277.448 388.428 276.977 389.492 276.225C390.736 275.348 391.642 274.141 392.519 272.951C394.097 270.81 395.678 268.6 396.352 266.094C397.026 263.588 396.636 260.693 394.665 258.845C392.838 257.133 389.982 256.62 387.389 256.942C384.795 257.265 382.1 257.555 379.739 258.588L376.554 259.892Z" fill="#6584C6"/>
<path d="M391.249 259.191C389.589 258.577 387.606 258.503 386.072 259.345C384.83 260.025 384.013 261.224 383.572 262.483C383.09 263.856 383.024 265.407 383.726 266.699C384.379 267.899 385.664 268.77 387.085 269.1C388.507 269.431 390.045 269.245 391.379 268.689C393.855 267.658 395.649 265.051 394.925 262.656C394.44 261.049 392.941 259.815 391.249 259.191Z" fill="#393973"/>
<path d="M274.679 324.975H248.776V325.715H274.679V324.975Z" fill="#393973"/>
<path d="M276.851 328.304H247.567V329.044H276.851V328.304Z" fill="#393973"/>
<path d="M378.127 327.38H359.792V328.119H378.127V327.38Z" fill="#393973"/>
<path d="M376.728 331.078H361.404V331.818H376.728V331.078Z" fill="#393973"/>
<path d="M374.842 282.117C372.026 281.771 369.455 280.24 367.961 278.022C366.466 275.805 366.123 273.009 367.043 270.542L367.806 270.782C366.964 273.041 367.279 275.602 368.647 277.633C370.016 279.663 372.372 281.065 374.951 281.383L374.842 282.117Z" fill="#393973"/>
<path d="M304.524 305.47C304.3 304.773 304.076 304.076 303.85 303.379C299.219 303.306 294.59 303.232 289.959 303.156C289.55 303.979 289.142 304.8 288.732 305.622C293.997 305.572 299.259 305.522 304.524 305.47Z" fill="#6584C6"/>
<path d="M346.896 306.993C346.951 308.528 347.848 309.942 348.967 311.085C349.575 311.707 350.281 312.285 351.145 312.547C352.009 312.809 353.058 312.692 353.677 312.081C354.425 311.343 354.33 310.171 353.965 309.221C353.288 307.459 351.822 305.965 349.982 305.163C349.344 304.885 348.585 304.69 347.943 304.964C347.159 305.298 346.868 306.2 346.896 306.993Z" fill="#6584C6"/>
<path d="M388.119 272.81C387.445 272.81 386.77 272.742 386.107 272.6C382.373 271.8 379.447 268.702 379.154 265.237C378.856 261.725 381.336 258.231 384.924 257.108L385.184 257.809C381.933 258.826 379.686 261.994 379.957 265.18C380.219 268.282 382.943 271.162 386.291 271.88C389.613 272.593 393.414 271.201 395.346 268.575L396.014 268.989C394.252 271.381 391.194 272.81 388.119 272.81Z" fill="#393973"/>
<path d="M153.38 128.215H-0.00012207V663.266H153.38V128.215Z" fill="#E6A34B"/>
<path d="M28.623 128.215H-0.00012207V663.266H28.623V128.215Z" fill="#022A44"/>
<path d="M138.257 128.215H-0.00012207V663.266H138.257V128.215Z" fill="#E6A34B"/>
<path d="M25.8023 128.215H-0.00012207V663.266H25.8023V128.215Z" fill="#022A44"/>
<path d="M138.46 128.338H35.0361V663.389H138.46V128.338Z" fill="#BA782A"/>
<path d="M138.461 128.338H94.9846V663.389H138.461V128.338Z" fill="#022A44"/>
<path d="M26.0038 128.338H0.203003V663.389H26.0038V128.338Z" fill="#022A44"/>
<path d="M152.568 246.568H28.6226V250.266H152.568V246.568Z" fill="white"/>
<path d="M152.568 371.824H28.6226V375.523H152.568V371.824Z" fill="white"/>
<path d="M152.568 497.079H28.6226V500.778H152.568V497.079Z" fill="white"/>
<path d="M152.568 622.336H28.6226V626.034H152.568V622.336Z" fill="white"/>
<path d="M130.626 184.416C129.875 183.489 128.878 182.736 127.762 182.193C127.711 182.15 127.659 182.107 127.606 182.064C128.682 178.801 129.912 175.533 131.377 172.126C130.949 171.821 130.52 171.517 130.091 171.213C127.994 173.951 125.896 176.689 123.799 179.426C123.745 179.397 123.695 179.361 123.641 179.333C121.71 178.305 119.485 177.639 117.258 177.79C114.911 177.95 112.761 179.006 110.983 180.446C107.654 177.798 104.556 175.331 101.679 173.043C101.462 173.195 101.244 173.348 101.026 173.501C103.36 176.889 105.694 180.276 108.028 183.663C106.02 186.575 105.061 190.117 106.023 193.414C107.122 197.178 110.669 200.185 114.793 201.18C118.918 202.172 123.481 201.23 126.93 198.937C129.377 197.309 131.321 194.988 132.103 192.318C132.886 189.646 132.425 186.638 130.626 184.416Z" fill="#022A44"/>
<path d="M126.334 187.047C124.15 185.075 120.417 184.758 117.857 186.307C115.296 187.856 114.158 191.096 115.228 193.725C116.299 196.354 119.455 198.126 122.509 197.838C125.563 197.549 128.247 195.244 128.777 192.482C129.308 189.722 128.52 189.019 126.334 187.047Z" fill="#DE32A8"/>
<path d="M114.131 183.736C118.285 194.546 116.225 207.176 108.801 216.41C100.854 215.953 92.8562 216.262 84.9791 217.329C80.3612 209.291 71.7459 203.951 63.5996 198.751C62.0071 197.734 60.2454 196.401 60.3405 194.629C60.3808 193.867 60.7757 193.164 61.1625 192.488C63.3224 188.708 65.4823 184.929 67.6421 181.149C79.9163 179.233 92.3517 178.177 104.802 177.992C106.787 177.962 108.889 177.983 110.583 178.928C112.426 179.956 113.415 181.875 114.131 183.736Z" fill="#393973"/>
<path d="M109.275 217.107L104.616 202.356L94.5262 202.875C92.8015 207.431 90.6706 211.898 88.1948 216.152L87.484 215.805C89.984 211.51 92.1261 206.999 93.854 202.398L93.9427 202.163L105.213 201.583L110.05 216.9L109.275 217.107Z" fill="#022A44"/>
<path d="M91.4071 201.759C85.9913 192.778 76.8296 185.69 66.2688 182.311L66.5331 181.613C77.2793 185.05 86.6022 192.262 92.1131 201.4L91.4071 201.759Z" fill="#022A44"/>
<path d="M111.758 179.067C112.108 185.493 110.256 192.074 106.459 197.466L107.136 197.867C110.898 192.524 112.787 186.044 112.581 179.669C112.297 179.478 112.036 179.265 111.758 179.067Z" fill="#022A44"/>
<path d="M82.6856 211.019C79.7376 211.545 76.6992 211.306 73.698 211.414C70.6967 211.521 67.5504 212.042 65.2487 213.805C63.0727 215.472 61.967 218.002 61.0224 220.448C58.155 227.87 56.0161 235.527 54.6379 243.297C61.6011 242.67 68.5626 242.042 75.5258 241.415C75.0455 234.434 73.9704 227.485 72.315 220.655C77.7937 218.009 83.8332 216.338 89.9969 215.759L82.6856 211.019Z" fill="#393973"/>
<path d="M103.838 212.676C106.429 213.429 109.223 213.053 111.94 212.939C114.656 212.825 117.627 213.071 119.629 214.752C121.023 215.923 121.724 217.613 122.379 219.236C124.956 225.631 127.535 232.027 130.112 238.422C123.588 238.992 117.023 239.172 110.474 238.964C111.734 233.842 112.746 228.67 113.509 223.467C113.684 222.268 113.839 221.008 113.351 219.884C111.778 216.277 104.935 216.428 103.838 212.676Z" fill="#393973"/>
<path d="M105.508 184.196C105.599 185.319 105.587 186.477 105.142 187.526C104.328 189.445 102.369 190.504 100.356 191.567C97.6724 192.982 94.3326 192.876 91.8021 191.241C86.1139 187.569 80.2065 184.183 74.1105 181.103C73.3078 176.003 76.8909 170.74 82.0681 168.689C87.2454 166.639 93.5735 167.665 98.0286 170.828C102.485 173.991 105.09 179.058 105.508 184.196Z" fill="#022A44"/>
<path d="M82.0275 179.706C84.687 182.743 87.922 185.359 91.5454 187.404C91.2988 183.924 85.5171 181.124 82.0275 179.706Z" fill="#DE32A8"/>
<path d="M102.216 177.64C101.501 180.104 101.401 182.718 101.928 185.223C104.193 183.315 104.33 179.687 102.216 177.64Z" fill="#DE32A8"/>
<path d="M64.1975 184.416C63.4464 183.489 62.4487 182.736 61.3333 182.193C61.2817 182.15 61.2301 182.107 61.1769 182.064C62.2536 178.801 63.4835 175.533 64.9487 172.126C64.5199 171.821 64.0911 171.517 63.6624 171.213C61.5654 173.951 59.4668 176.689 57.3698 179.426C57.3166 179.397 57.2666 179.361 57.2118 179.333C55.2808 178.305 53.0581 177.639 50.8289 177.79C48.4821 177.95 46.3319 179.006 44.554 180.446C41.2256 177.798 38.1276 175.331 35.2505 173.043C35.0329 173.195 34.8153 173.348 34.5977 173.501C36.9316 176.889 39.2656 180.276 41.5995 183.663C39.5911 186.575 38.6321 190.117 39.5944 193.414C40.6936 197.178 44.2397 200.185 48.3644 201.18C52.4891 202.172 57.0522 201.23 60.5016 198.937C62.9484 197.309 64.8922 194.988 65.674 192.318C66.4573 189.646 65.9963 186.638 64.1975 184.416Z" fill="#022A44"/>
<path d="M59.9066 187.047C57.7226 185.075 53.9896 184.758 51.43 186.307C48.8687 187.856 47.7308 191.096 48.801 193.725C49.8713 196.354 53.0257 198.126 56.0817 197.838C59.1378 197.549 61.8199 195.244 62.3502 192.482C62.8805 189.722 62.0907 189.019 59.9066 187.047Z" fill="#DE32A8"/>
<path d="M83.5281 198.116C81.7809 196.138 79.5211 194.59 77.6658 192.695C76.5118 191.516 75.3029 190.097 73.5766 189.982C71.9986 189.877 70.5302 191.04 70.1256 192.436C69.7227 193.833 70.2385 195.354 71.1846 196.511C72.1308 197.667 73.4654 198.509 74.8419 199.221C77.6239 200.662 80.659 201.656 83.7328 202.462C84.5516 202.088 84.9062 201.144 84.7692 200.317C84.6322 199.49 84.1019 198.765 83.5281 198.116Z" fill="#022A44"/>
<path d="M112.948 188.3C112.315 190.902 111.681 193.504 111.048 196.107C110.911 196.669 110.795 197.323 111.196 197.768C111.617 198.236 112.45 198.224 113.001 197.891C113.552 197.558 113.878 196.991 114.126 196.432C114.982 194.515 115.224 192.371 114.816 190.334C114.721 189.856 114.584 189.374 114.281 188.976C113.98 188.577 113.478 188.275 112.948 188.3Z" fill="#022A44"/>
<path d="M113.126 209.953L108.256 216.71L109.6 217.526L114.471 210.769L113.126 209.953Z" fill="#022A44"/>
<path d="M84.5855 218.771L83.1171 218.163C83.8988 216.571 83.7554 214.587 82.748 213.107C81.7406 211.627 79.8628 210.636 77.9624 210.583L78.0108 209.103C80.472 209.173 82.8124 210.407 84.1164 212.324C85.4188 214.241 85.5993 216.712 84.5855 218.771Z" fill="#022A44"/>
<path d="M63.9284 223.67C63.1305 223.67 62.3407 223.621 61.5654 223.573L61.6718 222.097C63.0628 222.184 64.5006 222.272 65.8497 222.053C67.2665 221.823 68.4303 221.251 69.1282 220.446C69.9148 219.535 70.142 218.24 69.7069 217.148C69.2733 216.055 68.1901 215.2 66.9474 214.971L67.2665 213.521C69.046 213.851 70.5966 215.076 71.2204 216.641C71.8442 218.205 71.517 220.06 70.3887 221.365C69.4474 222.455 67.9338 223.217 66.1286 223.51C65.3952 223.63 64.6586 223.67 63.9284 223.67Z" fill="#022A44"/>
<path d="M122.219 222.88C121.041 222.88 119.984 222.686 119.063 222.297C117.295 221.554 116.098 220.051 116.012 218.467C115.962 217.54 116.359 216.566 117.074 215.858C117.724 215.215 118.565 214.849 119.444 214.83L119.482 216.31C119.044 216.32 118.607 216.517 118.256 216.866C117.83 217.287 117.593 217.859 117.622 218.394C117.677 219.416 118.527 220.445 119.736 220.952C120.806 221.403 122.153 221.516 123.746 221.283L123.996 222.745C123.377 222.835 122.783 222.88 122.219 222.88Z" fill="#022A44"/>
<path d="M136.637 245.828C134.562 243.192 133.11 239.984 129.904 238.721C128.252 238.07 126.39 238.072 124.59 238.11C121.68 238.172 118.773 238.301 115.87 238.498C114.189 238.612 112.482 238.754 110.912 239.313C107.691 240.461 105.539 243.153 103.641 245.828H136.637Z" fill="#022A44"/>
<path d="M82.36 245.828C80.2856 243.192 78.8333 239.984 75.6274 238.721C73.9752 238.07 72.1136 238.072 70.3131 238.11C67.4038 238.172 64.496 238.301 61.5931 238.498C59.9119 238.612 58.205 238.754 56.635 239.313C53.4146 240.461 51.2628 243.153 49.364 245.828H82.36Z" fill="#022A44"/>
<path d="M93.8395 281.409C96.7392 281.508 99.3214 283.254 100.904 285.425C102.487 287.597 103.23 290.161 103.872 292.688C105.609 299.531 106.787 306.477 107.964 313.416C110.019 325.539 112.074 337.664 114.129 349.788C99.8581 348.825 85.4708 349.235 71.2963 351.01C71.8749 339.691 70.4549 328.38 69.628 317.074C68.8012 305.769 68.5836 294.28 71.5091 283.255L93.8395 281.409Z" fill="#6584C6"/>
<path d="M71.4541 278.555C68.959 278.747 66.7604 280.347 65.674 282.363C64.5877 284.379 64.5135 286.744 65.0615 288.926C63.3046 290.877 62.4342 293.445 62.6841 295.939C61.1979 297.451 60.3872 299.477 60.4613 301.487C60.5016 302.57 60.8224 303.697 61.6638 304.477C63.0596 305.773 65.5419 305.699 67.2246 304.712C68.9074 303.726 69.9213 302.048 70.6127 300.36C71.3042 298.67 71.7475 296.895 72.6388 295.283C73.7897 293.201 75.6449 291.47 76.72 289.356C77.7161 287.396 77.9885 285.149 77.4856 283.044C77.2342 281.992 76.7813 280.956 75.9931 280.144C75.2049 279.33 74.0508 278.762 72.8467 278.777L71.4541 278.555Z" fill="#7FC3E1"/>
<path d="M99.7776 297.305C102.442 291.577 101.177 286.313 100.912 280.114C89.4489 275.54 83.7881 276.262 76.0158 277.327C73.8978 277.617 71.1335 278.147 69.3815 279.249C67.6536 280.338 66.9572 282.339 66.8073 284.224C66.3592 289.902 71.6816 294.534 72.9501 300.111C73.5932 302.938 74.2412 305.584 74.6119 308.208H95.4788C96.1445 304.541 98.1657 300.77 99.7776 297.305Z" fill="#393973"/>
<path d="M95.4773 308.209H74.612C74.994 310.927 75.0778 313.624 74.5298 316.478C79.6683 316.352 91.2639 315.278 96.4025 315.151C95.1791 312.957 95.0421 310.605 95.4773 308.209Z" fill="#022A44"/>
<path d="M61.8848 364.422C60.0538 366.36 57.6827 367.893 55.028 368.792C54.1254 369.099 53.1825 369.34 52.3685 369.803C51.5545 370.266 50.8663 371.01 50.8228 371.873C53.6628 371.976 56.5077 371.97 59.3478 371.858C60.6534 371.806 62.0331 371.707 63.0969 371.028C63.9093 370.509 64.243 370.652 65.2294 370.791C65.8548 370.88 66.8912 370.359 67.4392 370.075C67.9018 369.835 67.8664 369.238 67.7713 368.767C67.6633 368.235 67.5553 367.704 67.4473 367.171C67.6778 364.092 69.6604 361.24 71.5236 358.576C73.619 355.58 75.7193 352.207 75.0939 348.718C75.0778 348.628 75.052 348.539 75.0326 348.449C71.6026 349.432 68.0582 350.278 64.2913 350.399C63.4902 355.074 62.6875 359.749 61.8848 364.422Z" fill="#7FC3E1"/>
<path d="M106.981 350.011C103.352 349.906 99.6936 349.692 96.1959 349.281C95.8751 352.568 97.8303 355.741 99.8128 358.576C101.46 360.931 103.19 363.436 103.733 366.11C103.357 367.729 103.045 369.359 102.862 371.004C105.448 372.441 109.494 371.797 112.603 371.331C111.799 369.54 110.578 367.128 109.619 365.397C108.741 360.268 107.861 355.139 106.981 350.011Z" fill="#7FC3E1"/>
<path d="M74.2574 342.602C75.1278 340.579 76.572 339.759 77.6149 337.802C78.3273 336.464 79.4492 334.815 79.9505 333.404C80.6226 331.508 82.5246 330.218 84.0268 328.752C88.2224 324.659 89.391 318.368 87.149 313.223H75.771C72.7262 316.251 70.1537 319.645 68.732 323.489C67.2604 327.468 67.0928 331.719 66.6125 335.888C66.2708 338.858 65.763 341.811 65.2569 344.762C64.9345 346.641 64.6122 348.52 64.2898 350.4C68.0567 350.279 71.6011 349.433 75.0311 348.451C74.6072 346.474 73.4563 344.468 74.2574 342.602Z" fill="#022A44"/>
<path d="M106.08 344.761C105.573 341.81 105.066 338.857 104.724 335.886C104.244 331.717 104.076 327.467 102.604 323.487C101.183 319.644 98.6103 316.25 95.5655 313.222H84.1875C81.9455 318.367 83.114 324.657 87.3097 328.751C88.8135 330.217 90.7139 331.507 91.386 333.402C91.8873 334.815 93.0092 336.463 93.7216 337.8C94.7645 339.758 96.2087 340.577 97.0791 342.601C97.9172 344.551 96.6116 346.655 96.2425 348.715C96.2087 348.903 96.2119 349.09 96.1941 349.278C99.6918 349.689 103.351 349.903 106.979 350.008C106.679 348.261 106.379 346.511 106.08 344.761Z" fill="#022A44"/>
<path d="M68.1419 295.948C66.6187 296.012 65.1052 296.201 63.856 296.944C62.6681 297.651 61.8702 298.787 61.3835 299.986C61.0369 300.842 60.8419 301.831 61.3158 302.638C61.6591 303.226 62.3054 303.624 62.9679 303.924C65.21 304.942 67.8147 305.065 70.3179 304.674C68.3063 302.305 67.2828 298.857 68.1419 295.948Z" fill="#7FC3E1"/>
<path d="M81.096 300.678C83.9635 299.391 87.0034 298.244 90.2078 298.111C89.1585 296.771 88.1108 295.432 87.0615 294.092C81.341 295.201 75.5013 295.812 69.6487 295.913C69.1507 295.922 68.6445 295.928 68.14 295.95C67.2825 298.858 68.3044 302.308 70.316 304.677C71.0059 304.569 71.6893 304.43 72.3534 304.251C75.4256 303.419 78.2286 301.965 81.096 300.678Z" fill="#55558E"/>
<path d="M83.9751 295.149C85.6563 294.26 87.4551 293.343 89.3974 293.411C92.1359 293.507 94.3022 295.503 96.8667 296.386C96.0172 297.383 95.1678 298.38 94.3167 299.378C90.495 298.866 86.6734 298.354 82.8517 297.842L83.9751 295.149Z" fill="#55558E"/>
<path d="M83.9792 293.317C82.0144 291.956 77.4561 290.484 74.9964 290.649C70.6928 290.939 68.2025 294.184 68.5877 296.188C71.1119 295.289 70.1835 296.089 72.706 296.99C73.2556 297.187 77.5818 296.315 78.1073 296.558C79.9915 297.429 83.0444 298.805 84.7674 299.931C85.9634 300.712 86.9934 301.492 87.9476 302.27C88.7986 300.243 89.8076 298.35 91.0649 296.478C88.5585 295.534 85.396 294.299 83.9792 293.317Z" fill="#6584C6"/>
<path d="M103.916 282.953C103.252 282.048 102.438 281.236 101.503 280.56C101.279 280.397 101.065 280.273 100.859 280.183C99.8528 279.746 98.7938 280.271 98.0636 280.925C95.9537 282.819 96.1036 285.559 96.5533 288.023C95.23 288.787 94.8045 290.339 94.4885 291.738C94.0711 293.592 93.6552 295.444 93.2377 297.298C92.6414 297.07 91.887 296.789 91.0618 296.478C89.8045 298.351 88.7955 300.245 87.9445 302.27C89.7062 303.706 91.1988 305.14 92.9138 306.578C94.5965 307.986 97.2625 307.507 98.2957 305.649C99.4675 303.539 100.852 301.516 102.119 299.447C104.097 296.215 105.836 292.715 105.9 289.013C105.941 286.896 105.222 284.733 103.916 282.953Z" fill="#7FC3E1"/>
<path d="M83.1156 261.307C81.8503 261.088 80.5108 260.885 79.3003 261.286C77.761 261.796 76.7552 263.203 76.3652 264.655C75.9751 266.106 76.0928 267.625 76.1508 269.118C76.2926 272.728 75.9606 276.635 73.4332 279.415C76.8568 281.401 77.9319 285.49 80.6027 288.279C84.6629 284.076 89.8289 280.773 95.5429 278.725C93.4346 277.453 92.1741 275.283 91.4182 273.081C90.6622 270.88 90.3269 268.574 89.5855 266.368C89.1165 264.968 88.433 263.552 87.1677 262.654C86.0217 261.841 84.542 261.554 83.1156 261.307Z" fill="#393973"/>
<path d="M79.1943 276.487C80.3983 277.284 82.0199 277.179 83.506 277.252C84.2378 277.289 85.055 277.352 85.6159 276.923C85.9947 276.633 86.1639 276.178 86.2977 275.743C86.749 274.268 86.9763 272.735 86.9714 271.204C84.0701 272.562 80.5402 272.751 77.4841 271.714C77.4906 272.584 77.497 273.464 77.7243 274.309C77.9516 275.155 78.4238 275.975 79.1943 276.487Z" fill="#7FC3E1"/>
<path d="M76.2651 269.275C76.7003 269.881 77.5626 270.077 78.3492 270.182C80.6074 270.482 82.9462 270.438 85.1318 269.837C85.7927 269.655 86.4584 269.411 86.9339 268.954C87.4078 268.497 87.6399 267.781 87.3272 267.22C87.1031 266.818 86.6405 266.562 86.1602 266.452C85.6815 266.343 85.1786 266.359 84.6854 266.375C82.8479 266.439 81.0088 266.503 79.1713 266.566C78.454 266.591 77.7077 266.622 77.0775 266.937C76.1942 267.38 75.7155 268.507 76.2651 269.275Z" fill="#DE32A8"/>
<path d="M95.3561 308.241H74.394V309.813H95.3561V308.241Z" fill="#7FC3E1"/>
<path d="M69.8147 278.565C69.7502 280.126 70.4385 281.699 71.6619 282.79C72.7257 280.921 73.7895 279.052 74.8517 277.182C73.1722 277.644 71.4926 278.105 69.8147 278.565Z" fill="#6584C6"/>
<path d="M90.8605 283.6C93.2444 281.828 95.9265 280.393 98.7859 279.36C97.0371 278.634 95.2495 277.98 93.4346 277.404C92.158 279.298 91.2796 281.412 90.8605 283.6Z" fill="#6584C6"/>
<path d="M116.385 550.085H37.2642V585.851H116.385V550.085Z" fill="#022A44"/>
<path d="M116.385 550.085H37.2642V581.167H116.385V550.085Z" fill="#6584C6"/>
<path d="M47.8411 550.085H37.2642V581.167H47.8411V550.085Z" fill="#022A44"/>
<path d="M60.1846 570.743C65.0504 570.743 68.9949 567.141 68.9949 562.698C68.9949 558.255 65.0504 554.653 60.1846 554.653C55.3188 554.653 51.3743 558.255 51.3743 562.698C51.3743 567.141 55.3188 570.743 60.1846 570.743Z" fill="#DE32A8"/>
<path d="M71.5594 562.698C71.5594 567.141 67.6152 570.743 62.749 570.743C57.8829 570.743 53.9387 567.141 53.9387 562.698C53.9387 558.255 57.8829 554.653 62.749 554.653C67.6152 554.653 71.5594 558.255 71.5594 562.698Z" fill="#022A44"/>
<path d="M130.156 584.364H37.2643V620.856H130.156V584.364Z" fill="#6584C6"/>
<path d="M49.6835 584.364H37.2643V620.856H49.6835V584.364Z" fill="#022A44"/>
<path d="M60.8925 597.803C63.1856 597.803 65.0446 596.105 65.0446 594.011C65.0446 591.917 63.1856 590.219 60.8925 590.219C58.5993 590.219 56.7404 591.917 56.7404 594.011C56.7404 596.105 58.5993 597.803 60.8925 597.803Z" fill="#022A44"/>
<path d="M62.7493 597.803C65.0424 597.803 66.9014 596.105 66.9014 594.011C66.9014 591.917 65.0424 590.219 62.7493 590.219C60.4561 590.219 58.5972 591.917 58.5972 594.011C58.5972 596.105 60.4561 597.803 62.7493 597.803Z" fill="#DE32A8"/>
<path d="M71.526 597.803C73.8191 597.803 75.6781 596.105 75.6781 594.011C75.6781 591.917 73.8191 590.219 71.526 590.219C69.2329 590.219 67.3739 591.917 67.3739 594.011C67.3739 596.105 69.2329 597.803 71.526 597.803Z" fill="#022A44"/>
<path d="M73.3826 597.803C75.6757 597.803 77.5347 596.105 77.5347 594.011C77.5347 591.917 75.6757 590.219 73.3826 590.219C71.0894 590.219 69.2305 591.917 69.2305 594.011C69.2305 596.105 71.0894 597.803 73.3826 597.803Z" fill="#DE32A8"/>
<path d="M92.2169 615.956C92.2169 616.417 91.8091 616.789 91.3062 616.789C90.8033 616.789 90.3955 616.417 90.3955 615.956V592.841C90.3955 592.381 90.8033 592.008 91.3062 592.008C91.8091 592.008 92.2169 592.381 92.2169 592.841V615.956Z" fill="#022A44"/>
<path d="M99.5074 615.956C99.5074 616.417 99.0996 616.789 98.5967 616.789C98.0938 616.789 97.686 616.417 97.686 615.956V592.841C97.686 592.381 98.0938 592.008 98.5967 592.008C99.0996 592.008 99.5074 592.381 99.5074 592.841V615.956Z" fill="#022A44"/>
<path d="M106.799 615.956C106.799 616.417 106.391 616.789 105.888 616.789C105.385 616.789 104.978 616.417 104.978 615.956V592.841C104.978 592.381 105.385 592.008 105.888 592.008C106.391 592.008 106.799 592.381 106.799 592.841V615.956Z" fill="#022A44"/>
<path d="M114.089 615.956C114.089 616.417 113.682 616.789 113.179 616.789C112.676 616.789 112.268 616.417 112.268 615.956V592.841C112.268 592.381 112.676 592.008 113.179 592.008C113.682 592.008 114.089 592.381 114.089 592.841V615.956Z" fill="#022A44"/>
<path d="M121.38 615.956C121.38 616.417 120.972 616.789 120.469 616.789C119.966 616.789 119.558 616.417 119.558 615.956V592.841C119.558 592.381 119.966 592.008 120.469 592.008C120.972 592.008 121.38 592.381 121.38 592.841V615.956Z" fill="#022A44"/>
<path d="M39.9756 466.803C40.1723 471.981 40.3673 477.159 40.5639 482.337C40.7622 487.565 41.5601 493.736 46.5858 496.248C50.4365 498.174 55.3961 496.993 58.9116 494.594C62.4286 492.194 64.8995 488.771 67.6348 485.636C70.3701 482.501 73.6518 479.474 77.8862 478.417C83.1117 477.11 88.6049 479.06 93.455 481.261C100.76 484.578 107.702 488.558 114.149 493.122C116.715 494.938 120.031 496.953 122.934 495.622C125.442 494.471 126.022 491.49 126.245 488.935C127.121 478.859 127.178 468.723 126.412 458.64C126.108 454.632 125.534 450.329 122.575 447.356C118.814 443.58 112.533 443.208 106.944 443.367C86.9173 443.932 67.0143 447.923 48.57 455.072C45.559 456.239 42.3676 457.675 40.9073 460.347C39.8338 462.31 39.8934 464.609 39.9756 466.803Z" fill="#6584C6"/>
<path d="M97.5408 447.16C93.6079 448.21 90.007 450.279 87.2717 453.064C85.3859 454.983 83.8675 457.362 83.7934 459.939C83.7031 463.105 85.8678 466.076 88.7546 467.83C91.6414 469.585 95.1553 470.277 98.6127 470.526C102.51 470.807 106.533 470.549 110.126 469.144C113.719 467.737 116.841 465.064 117.979 461.649C119.515 457.04 117.039 451.77 112.715 449.008C108.392 446.244 102.607 445.808 97.5408 447.16Z" fill="#022A44"/>
<path d="M43.1476 462.754C41.9597 465.037 41.2698 467.622 41.7824 470.106C42.1338 471.807 43.096 473.453 44.666 474.427C47.0724 475.918 50.3235 475.551 53.0621 474.658C57.0288 473.363 60.7312 470.943 62.5123 467.457C64.295 463.972 63.7244 459.367 60.5136 456.875C57.7928 454.764 53.6826 454.541 50.4154 455.853C47.1466 457.167 44.6789 459.81 43.1476 462.754Z" fill="#022A44"/>
<path d="M49.2619 458.553C48.7912 459.134 48.427 459.878 48.6623 460.569C48.9137 461.308 49.8099 461.747 50.6561 461.735C51.5023 461.723 52.2938 461.347 52.9804 460.895C53.7879 460.361 54.5552 459.583 54.4939 458.674C54.423 457.637 53.2045 456.884 52.0681 456.952C50.9318 457.019 49.9389 457.717 49.2619 458.553Z" fill="#6584C6"/>
<path d="M45.0756 464.716C44.605 465.298 44.2407 466.042 44.476 466.733C44.7275 467.471 45.6236 467.91 46.4699 467.898C47.3161 467.887 48.1075 467.511 48.7941 467.058C49.6017 466.524 50.3689 465.746 50.3076 464.837C50.2367 463.8 49.0182 463.047 47.8818 463.115C46.7455 463.182 45.7542 463.88 45.0756 464.716Z" fill="#6584C6"/>
<path d="M54.9327 462.497C54.462 463.078 54.0977 463.823 54.3331 464.513C54.5845 465.252 55.4807 465.691 56.3269 465.679C57.1731 465.667 57.9645 465.292 58.6512 464.839C59.4587 464.305 60.226 463.527 60.1647 462.618C60.0938 461.581 58.8752 460.828 57.7389 460.896C56.6025 460.963 55.6096 461.661 54.9327 462.497Z" fill="#6584C6"/>
<path d="M48.5868 469.401C48.1162 469.983 47.7519 470.727 47.9872 471.418C48.2387 472.156 49.1349 472.595 49.9811 472.584C50.8273 472.572 51.6187 472.196 52.3054 471.743C53.1129 471.209 53.8801 470.431 53.8189 469.523C53.748 468.486 52.5294 467.733 51.3931 467.801C50.2567 467.867 49.2638 468.565 48.5868 469.401Z" fill="#6584C6"/>
<path d="M97.7993 449.799C97.1385 450.483 96.6275 451.357 96.9579 452.171C97.3109 453.039 98.5682 453.555 99.7545 453.542C100.942 453.529 102.053 453.086 103.014 452.554C104.147 451.925 105.222 451.011 105.136 449.943C105.038 448.722 103.328 447.839 101.734 447.917C100.14 447.994 98.7487 448.815 97.7993 449.799Z" fill="#DE32A8"/>
<path d="M91.9288 457.047C91.268 457.73 90.757 458.604 91.0875 459.417C91.4404 460.285 92.6977 460.801 93.884 460.788C95.0719 460.775 96.1825 460.332 97.1431 459.8C98.2763 459.171 99.353 458.257 99.2659 457.189C99.1676 455.968 97.4574 455.085 95.8633 455.163C94.2692 455.242 92.8782 456.063 91.9288 457.047Z" fill="#DE32A8"/>
<path d="M105.752 454.437C105.091 455.121 104.58 455.995 104.911 456.807C105.264 457.676 106.521 458.192 107.707 458.179C108.895 458.165 110.006 457.723 110.966 457.19C112.1 456.562 113.176 455.647 113.089 454.579C112.991 453.359 111.281 452.475 109.687 452.554C108.092 452.634 106.701 453.455 105.752 454.437Z" fill="#DE32A8"/>
<path d="M96.853 462.555C96.1922 463.238 95.6812 464.113 96.0116 464.925C96.3646 465.793 97.6219 466.309 98.8082 466.296C99.9961 466.283 101.107 465.84 102.067 465.308C103.2 464.679 104.276 463.766 104.19 462.697C104.092 461.476 102.382 460.593 100.788 460.671C99.1934 460.751 97.8024 461.572 96.853 462.555Z" fill="#DE32A8"/>
<path d="M41.2185 492.597L41.0509 491.126C49.4744 490.312 57.511 486.931 63.6796 481.602C64.2776 481.085 64.8643 480.547 65.4542 480.008C67.8542 477.812 70.3365 475.539 73.652 474.558C77.0579 473.551 81.2148 474.08 85.0558 476.011C88.4391 477.712 91.2066 480.186 93.8839 482.578L92.7604 483.639C90.1605 481.316 87.472 478.914 84.2821 477.308C80.828 475.572 77.1336 475.083 74.1485 475.965C71.202 476.837 68.86 478.982 66.5954 481.056C65.9958 481.605 65.3962 482.154 64.7869 482.68C58.3589 488.228 49.9902 491.749 41.2185 492.597Z" fill="#022A44"/>
<path d="M120.532 496.4L118.957 496.079C123.105 478.912 121.769 460.362 115.194 443.845L116.707 443.336C123.387 460.116 124.746 478.96 120.532 496.4Z" fill="#022A44"/>
<path d="M118.455 496.777L118.202 465.704C118.623 447.593 119.042 429.482 119.463 411.371H115.715C104.379 416.151 93.0412 420.931 81.7051 425.711L80.5462 436.611C80.1029 456.687 79.0601 476.751 77.4482 496.776H118.455V496.777Z" fill="#DE32A8"/>
<path d="M115.214 496.777L114.961 465.704C115.382 447.593 115.801 429.482 116.222 411.371H112.474C101.138 416.151 89.8002 420.931 78.4641 425.711L77.3052 436.611C76.862 456.687 75.8191 476.751 74.2073 496.776H115.214V496.777Z" fill="#022A44"/>
<path d="M110.892 496.777L110.639 465.704C111.06 447.593 111.479 429.482 111.9 411.371H108.152C96.8162 416.151 85.4785 420.931 74.1424 425.711L72.9835 436.611C72.5402 456.687 71.4973 476.751 69.8855 496.776H110.892V496.777Z" fill="#DE32A8"/>
<path d="M107.372 496.777L107.128 466.938C107.56 448.295 107.994 429.653 108.426 411.011C95.8279 416.323 83.2297 421.634 70.6315 426.947L69.4726 437.847C69.039 457.511 68.0236 477.162 66.4681 496.779H107.372V496.777Z" fill="#022A44"/>
<path d="M95.5467 181.092C94.6312 181.092 93.7962 180.74 93.087 180.412C89.3862 178.694 86.0014 176.475 83.0323 173.815C81.6268 172.557 81.1272 171.372 81.5462 170.292C82.1555 168.724 84.2993 168.485 85.0036 168.408C88.0129 168.07 90.2034 168.128 92.2344 168.572C94.9213 169.156 97.1311 170.469 98.4561 172.267C100.01 174.376 100.184 177.13 98.8897 179.124C98.1353 180.284 96.9619 181.018 95.7482 181.088L95.5467 181.092ZM88.4401 169.673C87.4746 169.673 86.4156 169.739 85.1971 169.875C83.9624 170.013 83.2451 170.321 83.0646 170.79C82.8293 171.395 83.5288 172.193 84.1574 172.756C87.0104 175.311 90.2599 177.441 93.814 179.09C94.3829 179.355 94.9858 179.613 95.5467 179.613V180.352L95.6482 179.61C96.4509 179.564 97.1328 178.938 97.5035 178.367C98.4851 176.857 98.3304 174.738 97.1215 173.096C96.0222 171.605 94.1557 170.51 91.862 170.01C90.8192 169.784 89.7005 169.673 88.4401 169.673Z" fill="#55558E"/>
<path d="M53.0025 192.596C52.9703 194.271 54.6482 195.808 56.4728 195.775C58.2974 195.743 59.9077 194.145 59.8029 192.473C59.703 190.88 58.0782 189.498 56.339 189.529C54.5983 189.562 53.0332 191.001 53.0025 192.596Z" fill="white"/>
<path d="M121.193 189.464C120.482 190.247 120.021 191.275 120.182 192.284C120.442 193.908 122.436 195.052 124.18 194.688C125.924 194.324 127.165 192.646 127.052 191.008C126.958 189.64 125.869 188.285 124.389 188.104C123.174 187.956 121.978 188.598 121.193 189.464Z" fill="white"/>
<path d="M922.389 634.171H795.524V154.598L922.389 134.133V634.171Z" fill="#6584C6"/>
<path d="M922.389 420.15V134.133L795.524 154.598V426.068L922.389 420.15Z" fill="#7FC3E1"/>
<path d="M862.219 433.795L922.485 430.752L922.397 429.275L862.219 432.315V162.964L923.099 154.59L922.861 153.127L862.219 161.468V142.024H860.607V161.69L793.785 170.88L794.023 172.343L860.607 163.185V432.397L795.48 435.685L795.567 437.162L860.607 433.878V541.216H796.064V542.695H860.607V634.196H862.219V542.695H922.98V541.216H862.219V433.795Z" fill="#022A44"/>
<path d="M922.389 634.171H994V154.598L922.389 134.133V634.171Z" fill="#022A44"/>
<path d="M811.878 410.042C811.878 411.812 810.435 413.247 808.657 413.247C806.878 413.247 805.435 411.812 805.435 410.042V181.721C805.435 179.95 806.878 178.515 808.657 178.515C810.437 178.515 811.878 179.95 811.878 181.721V410.042Z" fill="#DE32A8"/>
<path d="M907.522 409.812C907.522 411.709 906.08 413.246 904.302 413.246C902.523 413.246 901.082 411.709 901.082 409.812V165.183C901.082 163.286 902.524 161.749 904.302 161.749C906.081 161.749 907.522 163.286 907.522 165.183V409.812Z" fill="#DE32A8"/>
<path d="M856.147 297.422C856.147 299.159 854.606 300.566 852.704 300.566C850.802 300.566 849.261 299.159 849.261 297.422V252.67C849.261 250.933 850.802 249.526 852.704 249.526C854.606 249.526 856.147 250.933 856.147 252.67V297.422Z" fill="#022A44"/>
<path d="M801.795 552.841C830.085 538.111 858.178 523.078 886.259 508.019C898.301 501.562 910.343 495.103 922.39 488.651V441.074C893.029 455.258 863.789 469.648 834.709 484.309C821.649 490.894 808.605 497.494 795.525 504.031V556.109C797.614 555.02 799.703 553.928 801.795 552.841Z" fill="#E6A34B"/>
<path d="M880.816 461.41C875.705 480.63 870.035 500.315 864.156 519.818C870.177 516.605 876.198 513.394 882.217 510.177C887.441 490.739 893.037 471.641 898.708 452.612C892.739 455.538 886.775 458.469 880.816 461.41Z" fill="#022A44"/>
<path d="M922.389 441.074C920.353 442.057 918.328 443.056 916.294 444.043C908.486 463.223 903.018 482.822 897.01 502.256C902.661 499.226 908.312 496.198 913.964 493.168C916.673 485.731 919.457 478.096 922.389 470.588V441.074Z" fill="#022A44"/>
<path d="M844.371 479.467C839.144 499.519 833.562 519.247 828.059 539.047C833.075 536.399 838.077 533.727 843.085 531.067C850.224 511.147 857.698 491.382 861.497 470.96C855.789 473.798 850.067 476.61 844.371 479.467Z" fill="#022A44"/>
<path d="M810.907 496.306C806.422 511.674 800.866 526.872 795.524 542.065V556.109C797.614 555.02 799.703 553.928 801.796 552.84C803.488 551.958 805.174 551.066 806.866 550.183C814.753 529.347 823.054 508.569 829.145 487.113C823.064 490.18 816.986 493.245 810.907 496.306Z" fill="#022A44"/>
<path d="M503.726 670.207C502.593 661.081 504.316 652.099 508.597 644.807C498.715 645.018 488.48 643.358 478.593 639.94C477.19 649.056 474.968 657.925 472.63 666.312C482.737 670.974 493.894 672.372 503.726 670.207Z" fill="#E6A34B"/>
<path d="M504.315 662.895C502.695 660.187 498.617 659.896 496.107 661.207C493.598 662.519 491.942 664.88 489.542 666.346C484.833 669.224 477.352 667.863 472.939 663.325C471.572 661.92 470.353 660.177 468.527 659.534C466.906 658.964 465.218 659.455 464.006 660.347C462.794 661.239 461.944 662.488 460.99 663.632C457.963 667.258 454.341 668.943 449.516 670.228C446.297 671.086 442.056 672.39 439.728 674.533C436.84 677.19 436.853 681.847 437.899 685.994C439.998 686.123 442.095 686.252 444.193 686.382L508.756 686.255C509.847 680.696 509.289 674.623 507.158 668.86C506.58 667.297 505.803 663.828 504.315 662.895Z" fill="#393973"/>
<path d="M449.596 670.533C449.738 669.588 450.526 668.818 451.417 668.33C452.309 667.842 453.319 667.571 454.27 667.193C457.151 666.046 460.079 662.723 462.478 660.861C464.876 658.998 467.002 658.498 470.139 658.386C471.124 658.35 472.173 658.503 472.924 659.088C473.675 659.674 473.991 660.791 473.4 661.516C472.934 662.087 472.1 662.254 471.353 662.441C467.481 663.407 464.286 665.845 460.909 667.838C457.534 669.83 453.48 671.461 449.596 670.533Z" fill="#474056"/>
<path d="M509.273 681.202C509.237 682.917 509.076 684.61 508.752 686.256L444.19 686.383C442.091 686.255 439.994 686.126 437.896 685.996C437.501 684.426 437.254 682.783 437.256 681.202H509.273Z" fill="#1D2630"/>
<path d="M599.164 468.666C563.734 471.642 529.955 480.988 499.813 496.151C493.945 499.104 487.989 502.494 484.909 508.271C482.555 512.685 482.109 518.087 481.698 523.352C478.321 566.766 474.944 610.181 471.566 653.597C484.888 655.566 486.013 657.976 499.106 657.841C502.5 657.807 511.651 657.267 513.999 655.193C516.938 652.598 516.691 647.09 516.741 642.856C516.913 627.968 519.697 617.596 523.441 603.793C526.028 594.254 528.891 586.112 530.432 576.183C531.973 566.254 531.322 555.036 527.671 537.709C545.085 529.468 572.638 534.091 593.276 534.622C613.914 535.153 636.191 532.493 647.371 517.15C655.967 505.353 656.073 488.614 655.904 472.826C632.984 467.748 610.063 462.673 587.143 457.595C586.65 460.896 586.156 464.195 585.663 467.495L599.164 468.666Z" fill="#474056"/>
<path d="M480.914 655.041C487.626 618.153 490.907 578.014 490.401 538.96L489.445 538.97C489.95 577.973 486.675 618.059 479.971 654.896L480.914 655.041Z" fill="#2E2C46"/>
<path d="M479.96 545.71C480.54 538.258 481.119 530.805 481.699 523.353C482.109 518.088 482.557 512.687 484.91 508.272C487.99 502.495 493.944 499.106 499.815 496.153C529.956 480.987 563.735 471.642 599.165 468.667L585.666 467.5C586.159 464.199 586.653 460.9 587.146 457.6C610.066 462.675 632.987 467.753 655.907 472.83C656.076 488.618 655.97 505.358 647.374 517.154C636.194 532.496 613.917 535.157 593.279 534.626C572.641 534.095 545.088 529.472 527.674 537.714C531.325 555.04 531.976 566.257 530.435 576.187C528.894 586.115 526.031 594.258 523.444 603.797C519.7 617.6 516.918 627.972 516.744 642.861C516.694 647.095 516.94 652.603 514.002 655.197C512.843 656.22 510.029 656.868 507.07 657.267C515.409 608.132 536.571 552.848 479.96 545.71Z" fill="#2E2C46"/>
<path d="M352.159 684.669C352.62 674.325 356.29 664.147 362.537 655.883C351.296 656.121 340.013 654.239 329.462 650.366C326.74 660.408 322.867 670.357 317.662 680.256C328.224 685.537 340.602 687.12 352.159 684.669Z" fill="#E6A34B"/>
<path d="M358.121 676.38C356.709 673.313 351.906 672.98 348.664 674.467C345.423 675.954 342.998 678.63 339.86 680.293C333.698 683.553 325.046 682.012 320.655 676.869C319.296 675.276 318.178 673.301 316.124 672.573C314.301 671.927 312.196 672.484 310.581 673.495C308.966 674.507 307.715 675.923 306.36 677.217C302.061 681.327 296.518 684.324 290.523 685.783C286.524 686.755 282.127 687.144 278.942 689.573C274.993 692.584 274.118 697.862 274.571 702.562C277.047 702.709 279.521 702.855 281.997 703L358.946 702.857C361.309 696.557 361.805 689.675 360.369 683.144C359.978 681.37 359.717 677.438 358.121 676.38Z" fill="#393973"/>
<path d="M292.183 685.126C292.344 684.055 293.513 682.647 294.524 682.092C295.534 681.539 296.679 681.232 297.759 680.802C301.023 679.503 303.598 677.12 306.316 675.01C309.033 672.9 312.189 670.949 315.742 670.822C316.859 670.782 318.047 670.954 318.898 671.618C319.749 672.282 320.107 673.547 319.436 674.369C318.909 675.016 317.965 675.205 317.117 675.417C312.728 676.512 309.109 679.275 305.281 681.533C301.456 683.792 296.585 686.177 292.183 685.126Z" fill="#474056"/>
<path d="M360.525 697.152C360.155 699.087 359.641 700.998 358.944 702.857L281.995 703C279.521 702.854 277.045 702.709 274.569 702.562C274.398 700.79 274.419 698.936 274.719 697.152H360.525Z" fill="#1D2630"/>
<path d="M494.798 454.431C450.249 457.764 425.968 467.571 385.293 484.614C377.372 487.932 369.25 491.741 364.165 498.238C360.281 503.201 358.541 509.275 356.876 515.196C343.158 564.018 329.439 612.839 315.719 661.663C331.793 663.882 332.658 666.592 348.911 666.447C353.124 666.41 364.579 665.806 367.945 663.475C372.155 660.558 373.059 654.365 374.05 649.603C377.534 632.859 383.261 621.195 390.93 605.675C396.229 594.949 401.565 585.793 405.654 574.628C409.743 563.463 411.4 550.848 410.681 531.361C434.067 522.1 467.189 527.308 492.643 527.914C518.098 528.521 546.282 525.537 563.503 508.287C576.745 495.024 580.552 476.199 583.809 458.445C556.526 452.727 529.244 447.009 501.96 441.291C500.624 445.003 499.287 448.713 497.951 452.425L494.798 454.431Z" fill="#474056"/>
<path d="M389.552 517.007C446.866 503.257 522.956 502.448 560.267 453.511C568.115 455.156 575.965 456.801 583.813 458.446C580.555 476.2 576.748 495.026 563.507 508.289C546.286 525.537 518.101 528.521 492.647 527.916C467.193 527.309 434.071 522.102 410.685 531.363C411.403 550.849 409.747 563.464 405.656 574.629C401.566 585.794 396.231 594.95 390.931 605.676C383.262 621.197 377.535 632.86 374.052 649.604C373.061 654.366 372.157 660.559 367.947 663.476C365.343 665.28 357.906 666.048 352.718 666.321C357.698 635.643 378.129 606.028 386.91 575.342C392.195 555.896 400.124 536.45 389.552 517.007Z" fill="#2E2C46"/>
<path d="M345.173 665.846C349.314 636.226 358.24 607.432 371.702 580.261C372.282 579.093 372.869 577.925 373.457 576.758C376.446 570.827 379.536 564.695 381.433 558.278C383.389 551.656 384.774 541.921 380.263 533.162C379.721 532.111 379.166 530.528 379.598 528.945C379.843 528.039 380.185 528.004 380.39 527.982C381.284 527.894 382.021 527.394 382.411 526.609C382.837 525.756 382.745 524.75 382.171 523.989L379.626 520.599C379.316 520.184 379.423 519.739 379.624 519.461C379.872 519.119 380.271 518.973 380.693 519.048C381.439 519.195 382.105 519.541 382.811 519.906C383.025 520.019 383.24 520.13 383.456 520.235C384.131 520.562 384.943 520.443 385.475 519.928C385.999 519.424 386.093 518.715 385.714 518.118C384.55 516.295 384.858 513.57 386.397 512.042C388.952 509.51 393.257 509.071 396.715 508.718C432.016 505.124 466.412 496.663 498.952 483.569L498.519 482.655C466.079 495.709 431.788 504.146 396.597 507.729C392.959 508.099 388.433 508.562 385.604 511.366C383.762 513.193 383.391 516.447 384.779 518.624C384.976 518.931 384.764 519.174 384.693 519.241C384.537 519.394 384.26 519.504 383.963 519.356C383.755 519.255 383.549 519.147 383.343 519.041C382.596 518.653 381.824 518.252 380.917 518.076C380.061 517.902 379.218 518.226 378.722 518.909C378.219 519.601 378.224 520.486 378.733 521.164L381.278 524.555C381.634 525.031 381.691 525.66 381.425 526.197C381.197 526.654 380.778 526.944 380.271 526.996C379.11 527.112 378.731 528.027 378.546 528.706C378.145 530.182 378.398 531.873 379.283 533.591C383.654 542.074 382.297 551.558 380.388 558.017C378.517 564.353 375.446 570.446 372.476 576.338C371.887 577.508 371.297 578.678 370.717 579.849C357.21 607.108 348.255 635.999 344.099 665.718L345.173 665.846Z" fill="#2E2C46"/>
<path d="M610.64 297.963C626.508 294.262 643.919 293.188 660.193 291.544C652.756 279.694 647.446 264.402 647.12 250.483C635.56 251.384 623.891 251.09 612.403 249.605C611.815 265.724 611.226 281.844 610.64 297.963Z" fill="#FCB79F"/>
<path d="M584.623 221.057C583.965 226.127 583.35 231.483 585.598 236.152C586.338 237.688 587.384 239.138 587.673 240.796C588.045 242.937 587.104 245.063 586.738 247.204C585.969 251.701 587.745 256.2 589.491 260.459C591.652 265.732 593.815 271.006 595.977 276.28C596.581 277.753 597.242 279.301 598.586 280.276C600.561 281.709 603.366 281.483 605.854 281.14C611.202 280.4 616.513 279.444 621.77 278.274C628.857 276.698 636.318 274.444 640.765 269.131C644.861 264.239 645.601 257.659 645.409 251.486C645.175 243.971 643.784 236.487 641.292 229.326C639.903 225.332 638.152 221.404 635.552 217.959C632.954 214.513 629.453 211.556 625.233 209.969C619.395 207.773 612.808 208.356 606.565 209.183C602.98 209.658 599.37 210.211 596.027 211.492C592.684 212.772 589.592 214.854 587.839 217.768L584.623 221.057Z" fill="#FCB79F"/>
<path d="M617.806 250.161C627.541 251.101 637.367 251.244 647.12 250.484C647.446 264.402 652.755 279.694 660.192 291.544C651.696 292.403 642.894 293.114 634.16 294.117C630.427 279.192 617.253 265.621 617.806 250.161Z" fill="#EA8F7D"/>
<path d="M569.493 208.538C570.993 210.861 573.463 212.636 576.275 213.417C571.694 210.467 569.773 204.476 571.88 199.712C572.4 202.921 575.771 205.52 579.297 205.431C577.054 204.888 575.593 202.458 576.286 200.422C578.103 202.768 581.414 203.249 583.983 203.175C586.649 203.098 589.32 203.033 591.986 202.934C589.549 200.526 587.935 197.255 588.525 194.028C590.851 198.333 595.606 201.363 600.737 202.154C600.877 202.129 600.999 202.101 601.146 202.077C601.534 202.017 601.915 201.925 602.303 201.859C600.922 200.446 599.998 198.697 599.981 196.814C602.011 198.562 604.777 199.57 607.559 199.573C606.312 198.743 605.424 197.468 605.129 196.077C607.953 197.556 611.367 198.591 614.829 199.018C621.16 197.67 627.862 198.447 634.355 198.753C638.134 198.931 642.125 199.191 645.257 201.274C647.388 202.69 648.906 204.82 650.249 206.974C654.656 214.047 657.702 221.934 659.179 230.097C660.012 234.707 657.636 240.236 656.41 244.76C653.627 255.021 650.739 262.118 648.241 272.448C637.738 263.863 620.596 264.214 611.502 256.605C605.209 251.34 602.11 243.598 599.974 235.607C598.925 231.682 595.379 228.889 591.072 228.085C587.801 227.474 584.747 225.986 582.539 223.561C582.516 223.536 582.5 223.505 582.478 223.48C575.98 220.452 570.709 215.076 569.493 208.538Z" fill="#022A44"/>
<path d="M636.716 207.681C638.217 210.088 639.719 212.495 641.22 214.902C639.133 213.777 637.252 212.29 635.899 210.447C635.693 210.165 635.495 209.865 635.449 209.529C635.404 209.193 635.549 208.812 635.881 208.664C636.212 208.513 636.533 207.387 636.716 207.681Z" fill="#847057"/>
<path d="M631.233 208.487C632.256 210.476 633.28 212.466 634.303 214.457C632.322 213.068 630.169 211.886 627.899 210.941C628.033 212.329 626.45 213.613 624.971 213.321C624.21 213.17 623.573 212.697 622.833 212.473C622.095 212.252 621.08 212.422 620.865 213.11C620.748 213.484 620.914 213.886 620.87 214.274C620.767 215.176 619.576 215.654 618.599 215.53C617.621 215.407 616.76 214.894 615.823 214.607C614.887 214.321 613.696 214.333 613.093 215.052C612.698 215.524 612.669 216.166 612.656 216.761C612.634 217.845 612.613 218.93 612.59 220.015C612.576 220.718 612.48 221.553 611.81 221.89C611.209 222.192 610.467 221.921 609.858 221.632C605.105 219.384 601.028 216.116 597.003 212.879C598.462 214.866 599.407 217.171 599.736 219.549C595.269 217.358 591.385 214.173 588.506 210.343C590.659 211.459 593.085 212.126 595.551 212.284C594.826 211.521 595.667 210.223 596.749 210.027C597.83 209.83 598.901 210.333 599.866 210.821C602.435 212.117 605.003 213.413 607.571 214.709C608.167 213.771 606.899 212.5 607.464 211.544C607.893 210.818 609.055 210.848 609.884 211.167C610.712 211.485 611.523 212.002 612.418 211.916C613.319 211.828 613.997 211.161 614.756 210.707C615.516 210.253 616.702 210.08 617.193 210.778C618.509 209.769 620.535 209.637 621.992 210.467C621.939 209.672 622.933 209.13 623.8 209.139C624.668 209.148 625.488 209.5 626.35 209.583C627.213 209.664 628.257 209.33 628.441 208.55L631.233 208.487Z" fill="#847057"/>
<path d="M586.47 215.852C582.476 214.946 579.136 211.929 578.081 208.273C581.024 210.663 583.978 213.065 586.47 215.852Z" fill="#847057"/>
<path d="M599.998 245.467C602.115 245.581 603.443 243.387 603.87 241.478C604.297 239.57 604.519 237.355 606.242 236.22C608.019 235.05 610.656 235.717 612.156 237.178C613.659 238.638 614.287 240.665 614.79 242.62C616.021 247.408 616.761 252.612 614.597 257.111C613.847 258.669 612.73 260.12 611.18 261.052C609.629 261.984 607.606 262.338 605.877 261.725L599.998 245.467Z" fill="#FCB79F"/>
<path d="M604.753 248.212C604.482 247.758 604.555 247.203 604.637 246.692C604.86 245.279 605.084 243.866 605.308 242.453C605.528 241.058 605.986 239.392 607.451 238.977C608.841 238.582 610.32 239.727 610.603 241.039C610.885 242.351 610.282 243.688 609.51 244.823C609.205 245.27 608.876 245.872 609.244 246.277C609.529 246.591 610.048 246.558 610.483 246.644C611.302 246.804 611.924 247.458 612.219 248.177C612.516 248.897 612.542 249.684 612.559 250.454C612.59 251.834 612.601 253.236 612.193 254.565C611.787 255.893 610.901 257.161 609.555 257.769C609.59 256.694 609.497 255.398 608.475 254.874C607.543 254.396 606.136 254.765 605.509 253.97C604.539 252.738 607.05 251.081 606.342 249.705C606.014 249.069 605.121 248.828 604.753 248.212Z" fill="#EA8F7D"/>
<path d="M612.348 276.287C609.059 277.49 605.874 278.934 602.832 280.603C605.545 280.687 608.269 280.48 610.932 279.99C611.496 279.887 612.108 279.739 612.437 279.304C613.077 278.458 612.168 277.305 612.348 276.287Z" fill="#283474"/>
<path d="M671.766 299.493C648.07 298.73 624.307 299.764 600.796 302.578C599.726 298.317 598.559 300.07 597.487 295.81C620.369 281.643 643.275 273.946 669.801 290.157C668.998 297.021 670.675 292.664 671.766 299.493Z" fill="#847057"/>
<path d="M663.635 293.9C644.635 296.885 625.269 297.909 606.02 296.941C615.341 293.522 624.777 290.074 634.721 288.825C644.666 287.575 655.325 288.726 663.635 293.9Z" fill="#474056"/>
<path d="M498.968 439.387C501.563 436.8 504.589 434.45 507.397 432.089C519.621 421.813 529.16 408.855 534.993 394.601C540.688 380.684 542.828 365.79 546.705 351.354C550.581 336.918 556.585 322.353 568.265 312.07C577.873 303.609 590.655 298.706 603.68 296.224C616.705 293.741 630.098 293.512 643.398 293.293C652.216 293.147 661.295 293.042 669.522 295.966C675.517 298.097 680.596 300.211 685.71 303.791C692.436 308.5 691.961 313.173 695.834 320.084C701.998 331.08 698.266 362.106 694.387 373.95C682.883 409.083 672.843 426.003 654.576 458.624C651.023 464.97 647.385 471.41 642.885 477.195C640.388 483.173 637.893 489.151 635.396 495.13C634.555 497.144 633.696 499.187 632.29 500.917C629.208 504.703 624.03 506.403 619.154 507.904C603.754 512.646 588.2 517.386 572.057 519.006C555.913 520.625 538.92 518.902 524.877 511.4C513.523 505.334 504.707 495.831 498.046 485.425C491.385 475.018 486.712 463.66 482.07 452.363C487.703 448.037 493.337 443.711 498.968 439.387Z" fill="#4E93B3"/>
<path d="M489.549 476.539C509.178 464.506 526.29 447.081 540.41 424.756C554.294 402.795 563.554 378.69 570.072 360.143L569.042 359.835C562.542 378.336 553.306 402.377 539.473 424.253C525.439 446.448 508.439 463.759 488.95 475.709L489.549 476.539Z" fill="#474056"/>
<path d="M636.877 330.793C624.313 330.956 610.926 332.136 601.031 339.257C589.208 347.763 585.393 362.387 581.716 375.771C569.726 419.42 551.394 461.591 527.364 500.813C526.206 502.702 524.992 504.815 525.503 506.932C526.022 509.085 528.158 510.539 530.199 511.694C553.321 524.766 583.739 524.177 608.304 513.563C632.87 502.948 651.912 483.376 664.802 461.408C677.69 439.44 684.915 415.063 690.621 390.658C693.249 379.415 695.579 368.115 697.814 356.799C698.934 351.132 699.884 344.782 696.323 340.044C692.658 335.165 685.574 333.809 679.18 333.043C665.162 331.363 651.013 330.61 636.877 330.793Z" fill="#337D96"/>
<path d="M485.503 460.625C484.337 457.877 483.203 455.118 482.071 452.362C487.703 448.036 493.336 443.711 498.968 439.386C501.563 436.798 504.589 434.449 507.396 432.088C519.621 421.812 529.16 408.854 534.991 394.6C540.686 380.683 542.826 365.788 546.703 351.352C550.579 336.916 556.583 322.352 568.263 312.068C570.642 309.974 573.218 308.099 575.942 306.424C540.525 355.339 544.741 432.91 485.503 460.625Z" fill="#85C3D0"/>
<path d="M538.102 333.483C524.195 345.507 502.291 389.302 483.299 393.029C477.171 394.231 472.584 396.868 466.326 397.184C438.653 398.587 442.407 399.989 414.733 401.392C413.846 408.056 412.96 414.723 412.072 421.389C456.46 423.766 456.41 431.43 500.799 433.807C518.868 419.591 560.487 381.099 576.784 354.564L538.102 333.483Z" fill="#FCB79F"/>
<path d="M356.931 420.227C359.751 422.319 363.913 421.789 367.29 420.579C370.667 419.368 373.913 417.566 377.533 417.397C382.258 417.177 386.508 419.754 390.862 421.454C398.268 424.344 406.993 424.714 414.307 421.634C421.622 418.554 427.197 411.799 427.557 404.408C417.48 403.94 408.645 396.576 398.574 397.165C395.818 397.326 393.149 398.086 390.512 398.842C385.628 400.242 380.657 401.68 376.463 404.372C369.303 408.967 364.888 416.915 356.931 420.227Z" fill="#FCB79F"/>
<path d="M557.224 344.133L580.009 355.304C563.71 381.838 526.416 421.137 500.8 433.807C456.412 431.429 456.462 423.766 412.073 421.389C412.08 421.346 412.084 421.303 412.091 421.262C413.01 414.362 423.91 413.033 431.319 414.481C521.822 432.166 516.811 382.912 557.224 344.133Z" fill="#D88568"/>
<path d="M584.909 357.397C590.907 352.082 596.969 344.509 601.184 337.9C605.399 331.293 607.591 323.213 605.214 315.87C602.836 308.528 598.715 302.258 590.415 302.911L587.772 301.897C571.033 302.708 567.41 305.997 558.699 310.809C547.178 317.175 540.859 326.204 531.169 335.722C529.817 337.051 528.592 338.681 527.433 340.482C542.391 349.923 556.073 360.741 569.065 372.184C574.387 367.096 579.668 362.044 584.909 357.397Z" fill="#337D96"/>
<path d="M428.934 664.214C419.176 664.214 411.267 671.527 411.267 680.548C411.267 689.57 419.176 696.882 428.934 696.882C438.691 696.882 446.602 689.57 446.602 680.548C446.603 671.528 438.692 664.214 428.934 664.214Z" fill="#022A44"/>
<path d="M751.71 664.697C741.954 664.697 734.043 672.009 734.043 681.031C734.043 690.052 741.952 697.365 751.71 697.365C761.469 697.365 769.378 690.052 769.378 681.031C769.378 672.009 761.469 664.697 751.71 664.697Z" fill="#022A44"/>
<path d="M751.71 672.094C746.372 672.094 742.044 676.095 742.044 681.031C742.044 685.966 746.372 689.968 751.71 689.968C757.049 689.968 761.376 685.966 761.376 681.031C761.376 676.094 757.049 672.094 751.71 672.094Z" fill="#DE32A8"/>
<path d="M424.287 672.094C421.115 672.094 418.543 676.095 418.543 681.031C418.543 685.966 421.115 689.968 424.287 689.968C427.459 689.968 430.032 685.966 430.032 681.031C430.03 676.094 427.459 672.094 424.287 672.094Z" fill="#DE32A8"/>
<path d="M750.371 656.539C729.548 654.974 668.256 650.296 644.68 647.731C616.076 644.62 604.298 630.62 604.298 630.62H600.591V540.291H596.851V488.348H582.769V540.291H579.029V630.62H575.32C575.32 630.62 563.543 644.621 534.939 647.731C511.364 650.296 450.07 654.974 429.247 656.539C425.267 656.838 422.207 659.912 422.207 663.605V667.437L569.153 656.458C566.468 658.585 563.596 660.546 560.709 662.339C558.296 663.839 555.798 665.337 554.052 667.487C553.198 668.537 552.58 669.697 552.12 670.916H543.446V701.243H572.535V670.916H563.401C563.506 670.117 563.57 669.316 563.694 668.518C575.137 667.021 585.989 662.275 594.714 655.28L757.415 667.437V663.605C757.413 659.914 754.351 656.838 750.371 656.539Z" fill="#022A44"/>
<path d="M600.589 608.528V540.291H596.85V488.348H582.767V540.291H579.029V608.528H600.589Z" fill="#DE32A8"/>
<path d="M402.21 525.178C400.638 520.612 403.111 515.519 407.014 512.326C410.918 509.134 416.013 507.477 421.018 506.056C468.211 492.665 479.343 505.849 528.162 512.862C576.982 519.874 664.345 520.526 712.833 529.247C722.284 530.947 732.025 532.594 740.177 537.278C748.332 541.961 754.621 550.523 753.1 559.208C751.749 566.918 744.567 572.918 736.59 575.729C728.613 578.54 719.862 578.732 711.313 578.89C681.853 579.435 652.395 579.979 622.935 580.524C592.064 581.093 561.039 581.657 530.453 577.798C485.173 572.088 442.083 556.864 399.473 541.756C395.985 540.519 392.385 539.217 389.758 536.785C387.131 534.353 385.741 530.455 387.497 527.437L402.21 525.178Z" fill="#022A44"/>
<path d="M717.827 218.464C705.258 216.878 692.362 221.893 683.342 230.041C674.32 238.19 668.846 249.152 665.829 260.406C662.879 271.411 661.927 283.285 655.033 292.704C645.892 305.195 628.818 310.182 613.222 314.963C597.624 319.745 580.732 326.399 574.078 340.138C568.176 352.326 572.289 366.778 579.65 378.285C587.012 389.792 597.364 399.473 605.243 410.69C626.89 389.345 667.821 391.616 687.837 368.982C695.909 359.853 699.209 347.913 700.269 336.22C701.33 324.526 700.374 312.753 701.033 301.035C702.574 273.607 713.191 246.657 731.139 224.616L717.827 218.464Z" fill="white"/>
<path d="M719.976 220.437C707.407 218.851 694.51 223.866 685.49 232.015C676.469 240.163 670.995 251.126 667.978 262.38C665.028 273.383 664.075 285.257 657.182 294.678C648.041 307.168 630.966 312.155 615.37 316.937C599.773 321.717 582.88 328.373 576.227 342.112C570.324 354.299 574.438 368.753 581.799 380.258C589.16 391.765 599.513 401.446 607.392 412.663C629.039 391.318 669.97 393.589 689.986 370.956C698.058 361.826 701.357 349.886 702.418 338.193C703.478 326.5 702.523 314.727 703.182 303.008C704.723 275.58 715.34 248.63 733.288 226.59L719.976 220.437Z" fill="#DE32A8"/>
<path d="M622.92 356.688C584.615 417.421 561.598 488.69 517.931 545.173C512.536 552.151 506.463 560.251 507.991 569.142C509.741 579.331 520.393 584.503 529.825 587.039C558.082 594.634 587.679 593.554 616.794 592.178C650.802 590.57 684.796 588.623 718.77 586.339C727.369 585.76 736.525 584.948 743.368 579.372C750.048 573.931 753.21 565.007 755.788 556.485C777.98 483.106 780.415 404.861 782.665 327.81C782.81 322.854 782.768 317.339 779.599 313.706C776.416 310.058 771.223 309.62 766.548 309.466C744.456 308.742 722.335 308.997 700.263 310.228C685.682 311.04 670.684 312.405 657.67 319.45C642.855 327.47 632.185 341.999 622.92 356.688Z" fill="#022A44"/>
<path d="M681.697 360.633C705.882 361.928 730.268 359.865 753.823 354.527C759.307 353.284 765.105 351.654 768.699 347.555C771.755 344.068 772.683 339.385 773.438 334.918C779.16 301.011 780.922 266.511 778.681 232.243C778.286 226.192 777.527 219.623 773.065 215.262C768.124 210.429 760.267 209.842 753.156 209.554C742.793 209.136 732.304 208.728 722.154 210.741C712.004 212.754 702.067 217.483 696.094 225.483C689.902 233.777 688.689 244.363 687.143 254.403C682.941 281.681 674.882 308.43 663.246 333.715C660.712 339.218 657.977 345.436 660.361 350.999C663.484 358.298 673.365 360.187 681.697 360.633Z" fill="#022A44"/>
<path d="M683.021 316.336C659.58 318.713 636.41 323.308 614.001 330.022C596.859 335.158 577.919 343.848 574.18 359.964C571.345 372.178 578.405 384.235 584.128 395.574C601.282 429.559 607.959 467.892 603.2 505.06C627.01 466.251 650.822 427.442 674.632 388.634L683.021 316.336Z" fill="#022A44"/>
<path d="M572.835 585.428L574.017 584.136C604.323 551.002 619.867 485.988 620.022 485.336L620.124 484.907L636.423 480.467L661.127 426.583L640.038 413.25L640.336 412.681C657.135 380.545 679.81 319.365 680.037 318.751L681.564 319.225C681.337 319.836 658.895 380.387 642.088 412.747L663.123 426.046L662.87 426.6L637.614 481.683L621.494 486.074C620.104 491.737 604.922 551.48 576.41 583.794L711.278 578.147L711.351 579.624L572.835 585.428Z" fill="#DE32A8"/>
<path d="M741.246 572.347L733.728 577.234L734.66 578.441L742.178 573.554L741.246 572.347Z" fill="#DE32A8"/>
<path d="M684.239 317.113L682.75 316.546C685.605 310.231 694.634 309.312 701.18 309.171L757.643 307.957C763.845 307.821 770.802 308.054 774.802 312.512L773.56 313.453C770.017 309.507 763.499 309.304 757.68 309.438L701.217 310.652C695.123 310.781 686.733 311.595 684.239 317.113Z" fill="#DE32A8"/>
<path d="M581.967 475.688C564.135 497.869 547.741 521.013 532.894 544.957C529.817 549.92 526.724 555.789 529.029 561.09C531.032 565.695 536.411 568.157 541.35 570.212C549.926 573.779 560.139 577.316 568.34 573.076C573.327 570.499 576.249 565.607 578.733 560.892C595.463 529.147 604.036 493.848 603.572 458.621C599.175 460.059 595.15 462.44 591.917 465.518L581.967 475.688Z" fill="#E6A34B"/>
<path d="M591.917 465.519L589.114 468.385C581.354 495.107 571.495 534.245 553.953 562.42C551.026 567.791 548.042 570.064 541.292 570.187C541.311 570.194 541.331 570.203 541.35 570.212C549.927 573.779 560.139 577.316 568.34 573.076C573.327 570.499 576.25 565.606 578.733 560.892C595.463 529.147 604.036 493.848 603.572 458.622C599.175 460.06 595.15 462.44 591.917 465.519Z" fill="#BA782A"/>
<path d="M551.922 573.827L550.852 572.721C557.78 567.074 561.893 559.3 565.001 552.438C569.715 542.039 573.181 531.303 576.908 519.356C582.717 500.712 588.406 481.81 593.814 463.171L595.373 463.553C589.962 482.199 584.269 501.112 578.456 519.763C574.719 531.756 571.235 542.535 566.49 553.008C563.497 559.612 559.135 567.947 551.922 573.827Z" fill="#022A44"/>
<path d="M647.937 328.155C640.292 329.799 632.792 332.013 625.54 334.769C619.365 337.116 612.972 340.197 609.91 345.625C606.438 351.777 608.177 359.279 610.895 365.739C613.612 372.2 617.284 378.558 617.534 385.476C617.626 388.047 617.239 390.66 617.834 393.175C618.427 395.69 620.358 398.202 623.151 398.548C626.923 399.015 629.74 395.58 631.655 392.577C642.361 375.783 653.161 358.791 659.276 340.178C660.536 336.341 661.286 331.493 657.904 328.941C655.235 326.924 651.307 327.43 647.937 328.155Z" fill="#E6A34B"/>
<path d="M657.905 328.939C655.235 326.926 651.309 327.43 647.939 328.155C646.13 328.544 644.333 328.97 642.542 329.422C653.888 331.88 621.651 387.603 617.891 393.028C617.873 393.061 617.845 393.092 617.826 393.126C617.829 393.142 617.831 393.159 617.836 393.175C618.429 395.69 620.36 398.202 623.152 398.548C626.923 399.016 629.741 395.58 631.656 392.577C642.361 375.783 653.161 358.791 659.276 340.178C660.535 336.341 661.285 331.491 657.905 328.939Z" fill="#BA782A"/>
<path d="M618.577 397.084L617.56 395.937C623.234 391.694 626.395 385.161 629.183 379.396C634.72 367.956 640.443 356.125 645.671 344.297C647.927 339.19 650.111 333.338 647.421 328.516L648.857 327.842C651.713 332.963 649.732 339.045 647.163 344.853C641.928 356.703 636.198 368.544 630.658 379.996C627.794 385.913 624.551 392.617 618.577 397.084Z" fill="#022A44"/>
<path d="M738.335 226.881C746.016 226.939 756.417 227.107 762.932 227.223C766.7 227.289 770.113 229.258 771.799 232.337L775.312 238.755C776.497 240.918 776.707 243.419 775.898 245.723L756.098 302.045L739.895 303.894L726.525 249.676C726.259 248.597 726.188 247.486 726.316 246.387L727.55 235.685C728.129 230.651 732.792 226.84 738.335 226.881Z" fill="#DE32A8"/>
<path d="M743.949 304.711L734.186 262.878C732.762 256.77 731.288 250.452 731.607 244.047C731.935 237.415 734.185 230.96 738.111 225.381L739.465 226.184C735.692 231.543 733.53 237.743 733.216 244.113C732.91 250.328 734.36 256.551 735.764 262.569L745.527 304.402L743.949 304.711Z" fill="#022A44"/>
<path d="M408.078 523.904C403.083 523.077 397.93 522.251 392.969 523.238C388.007 524.226 383.233 527.496 382.355 532.063C381.568 536.156 384.094 540.309 387.621 542.938C391.147 545.567 395.552 546.968 399.858 548.318L491.475 577.078C499.196 579.501 507.293 574.662 508.08 567.243C508.415 564.084 508.836 560.927 509.166 557.776C510.021 549.641 510.23 541.18 506.944 533.58C503.657 525.979 496.119 519.412 487.179 519.022C478.24 518.633 469.212 526.324 471.025 534.326C450.044 530.852 429.061 527.377 408.078 523.904Z" fill="#E6A34B"/>
<path d="M474.676 548.031L395.03 529.391C392.751 528.86 390.392 528.308 388.074 528.513C386.154 528.682 383.757 529.552 382.787 531.483L381.323 530.861C382.581 528.364 385.556 527.25 387.919 527.04C390.522 526.805 393.129 527.419 395.429 527.957L475.075 546.598L474.676 548.031Z" fill="white"/>
<path d="M496.425 577.205L495.384 576.075C497.903 574.115 498.324 570.71 498.538 567.392C498.906 561.716 499.196 555.964 499.406 550.298C499.599 544.997 499.647 540.242 498.261 535.723C496.682 530.565 493.303 526.59 488.993 524.818C484.077 522.794 478.037 524.171 475.533 527.892L474.161 527.115C477.075 522.788 484.024 521.155 489.651 523.469C494.398 525.42 498.1 529.741 499.81 535.322C501.258 540.045 501.211 544.921 501.013 550.346C500.805 556.026 500.511 561.79 500.144 567.478C499.921 570.959 499.43 574.866 496.425 577.205Z" fill="white"/>
</svg>
