<svg width="68" height="68" viewBox="0 0 68 68" fill="none" xmlns="http://www.w3.org/2000/svg">
<path d="M63.4176 33.9054C63.3854 34.1833 63.2254 34.3914 63.062 34.6029C60.3213 38.1309 57.5806 41.6593 54.8398 45.1881C54.2498 45.9462 54.0698 45.9565 53.3143 45.3585C52.2643 44.526 51.2287 43.6741 50.1676 42.8588C49.6532 42.4632 49.6276 42.0676 50.011 41.5747C52.8495 37.9225 55.6861 34.2671 58.5209 30.6088C58.892 30.1297 59.242 30.0988 59.7032 30.4876C60.7876 31.4024 61.8954 32.2897 62.992 33.1896C63.222 33.3737 63.4543 33.5544 63.4176 33.9054Z" fill="#248ACB"/>
<path d="M45.6843 14.3074C45.6843 14.5704 45.5154 14.7499 45.3699 14.9352C44.5288 16.0203 43.6588 17.0826 42.8488 18.1918C42.4043 18.8024 42.0099 18.855 41.4354 18.3782C38.3303 15.7962 35.2125 13.2264 32.0821 10.6688C31.9399 10.5545 31.8032 10.4287 31.661 10.3121C30.271 9.17775 30.2721 9.17889 31.3599 7.77585C32.0266 6.92053 32.6932 6.07092 33.3355 5.19731C33.7366 4.64958 34.1132 4.51122 34.6855 4.98576C38.2099 7.88867 41.7432 10.7801 45.2854 13.6602C45.4921 13.8248 45.6832 14.0055 45.6843 14.3074Z" fill="#248ACB"/>
<path d="M9.62776 36.9471C9.41556 36.828 9.21073 36.6955 9.01443 36.5503C7.97887 35.703 6.96665 34.8248 5.91665 33.9992C5.36666 33.5681 5.28443 33.1851 5.73221 32.6088C8.53887 29.0068 11.3329 25.3942 14.1144 21.7709C14.53 21.2312 14.9 21.2129 15.4089 21.6485C16.4666 22.553 17.5522 23.4221 18.6388 24.2877C19.1611 24.7039 19.1944 25.0881 18.77 25.629C15.99 29.1852 13.2215 32.7505 10.4644 36.3251C10.2544 36.5961 10.0655 36.8911 9.62776 36.9471Z" fill="#248ACB"/>
<path d="M25.2833 48.6951C25.4673 48.8044 25.6453 48.9239 25.8167 49.0531C29.2241 51.85 32.6281 54.6508 36.0289 57.4553C36.9577 58.2226 36.9577 58.3701 36.22 59.3295C35.4822 60.2889 34.7644 61.2082 34.0455 62.1539C33.5033 62.8651 33.2678 62.9337 32.5755 62.3826C30.5122 60.7211 28.4644 59.0345 26.4155 57.3513C24.9933 56.1895 23.5889 55.0037 22.1422 53.8751C21.5722 53.4303 21.5189 53.0438 21.9611 52.4892C22.85 51.3743 23.7089 50.2354 24.5867 49.1114C24.7467 48.9067 24.9189 48.6929 25.2833 48.6951Z" fill="#248ACB"/>
<path d="M49.9232 67.9993C46.7699 68.0096 44.2477 65.3842 44.2832 62.3791C44.291 61.693 44.051 61.2356 43.5332 60.8297C38.2888 56.6713 33.0492 52.5025 27.8144 48.3235C27.3222 47.9313 26.8355 47.5288 26.3511 47.1263C25.3199 46.2698 24.7955 46.3133 23.9411 47.3939C22.6644 49.013 21.4111 50.6505 20.1433 52.2754C19.9023 52.5908 19.6425 52.8906 19.3655 53.173C18.8844 53.651 18.3655 53.6761 17.8233 53.2519C16.9155 52.5372 16.0155 51.8134 15.0911 51.1227C14.5011 50.6825 14.3522 50.1313 14.5355 49.4372C14.6535 48.9422 14.8732 48.479 15.18 48.0788C17.6488 45.0135 20.1214 41.9513 22.5977 38.8921C23.6399 37.6126 24.0722 37.576 25.3755 38.6394C27.6744 40.5158 29.9577 42.4129 32.2466 44.3042C37.0866 48.3018 41.9247 52.3039 46.761 56.3107C47.2754 56.7372 47.731 56.9076 48.4388 56.6606C50.8832 55.8076 53.7721 57.2632 54.9654 59.852C56.6743 63.5317 53.8677 68.0645 49.9232 67.9993ZM49.8121 64.6832C50.4425 64.6829 51.0471 64.4256 51.4935 63.9677C51.94 63.5097 52.192 62.8883 52.1943 62.2396C52.2032 60.8571 51.2543 59.8463 49.9221 59.8166C48.5143 59.7834 47.5321 60.7828 47.5188 62.2602C47.5118 62.5746 47.5658 62.8873 47.6775 63.1801C47.7891 63.4729 47.9563 63.7399 48.1692 63.9655C48.3821 64.1911 48.6366 64.3709 48.9177 64.4943C49.1988 64.6177 49.5009 64.6823 49.8066 64.6844L49.8121 64.6832Z" fill="#248ACB"/>
<path d="M0 51.2394C0.031111 47.5174 2.19111 45.1709 5.16777 44.9926C5.39749 44.9905 5.62336 44.9316 5.82639 44.821C6.02941 44.7104 6.20365 44.5512 6.33443 44.3568C9.9122 39.5702 13.4959 34.7882 17.0855 30.0107C18.0855 28.6786 19.0988 27.359 20.1077 26.036C20.7899 25.143 20.7444 24.6135 19.9144 23.828C18.5755 22.561 17.23 21.3032 15.9 20.0282C15.0744 19.2358 15.0222 18.6652 15.6844 17.7252C16.31 16.839 16.9566 15.9677 17.6055 15.0952C18.4555 13.9598 19.1111 13.8946 20.1211 14.846C22.4011 16.9934 24.6788 19.1435 26.9544 21.2963C27.2799 21.6028 27.621 21.8978 27.9444 22.2008C29.0322 23.2071 29.1266 24.1104 28.201 25.3122C26.3622 27.6986 24.4955 30.0633 22.6455 32.4395C18.7937 37.3816 14.9418 42.3222 11.09 47.2612C10.6166 47.865 10.4633 48.3704 10.6766 49.196C11.2766 51.5127 10.5422 53.4977 8.73442 54.9694C6.95665 56.4147 4.97665 56.584 2.95666 55.5137C1.02111 54.4857 0.0188888 52.8117 0 51.2394ZM5.41887 52.9271C6.70665 52.9363 7.71332 51.89 7.72665 50.5258C7.73887 49.2554 6.71554 48.2046 5.4511 48.1909C4.14888 48.176 3.17666 49.1926 3.16777 50.5796C3.16137 50.8871 3.215 51.1928 3.32548 51.4785C3.43596 51.7643 3.60105 52.0243 3.81097 52.2433C4.02088 52.4622 4.27136 52.6355 4.54755 52.753C4.82374 52.8704 5.12003 52.9297 5.41887 52.9271Z" fill="#248ACB"/>
<path d="M62.5809 11.7186C64.0142 11.7507 65.3797 12.3533 66.3902 13.3999C67.4008 14.4465 67.9777 15.8555 67.9998 17.3308C68.0231 20.2798 65.6553 22.8194 62.7265 22.8789C61.9042 22.8949 61.3931 23.1808 60.912 23.8269C56.7054 29.5054 52.4676 35.1576 48.2665 40.8406C46.9332 42.6382 46.9798 42.6702 48.6576 44.2173C49.8376 45.307 51.0232 46.3899 52.1876 47.4968C53.2454 48.5019 53.2932 49.1446 52.4409 50.3155C51.9576 50.9787 51.4576 51.6282 50.9709 52.2891C50.0943 53.4795 49.1165 53.6281 47.9998 52.6322C46.3498 51.1616 44.7432 49.6397 43.121 48.136C42.0787 47.1698 41.0421 46.1921 40.001 45.2293C39.0221 44.3214 38.8965 43.5312 39.6865 42.3706C40.3854 41.3415 41.1721 40.3764 41.9298 39.3907C46.9587 32.85 51.9935 26.3131 57.0343 19.7801C57.3743 19.341 57.282 18.9545 57.1976 18.5131C56.5232 14.9786 59.1487 11.6683 62.5809 11.7186ZM62.4698 19.6989C63.8542 19.692 64.7942 18.6949 64.7742 17.253C64.7565 15.906 63.7942 14.9409 62.4931 14.9661C61.192 14.9912 60.2543 15.9952 60.2598 17.412C60.2582 17.7117 60.3141 18.0087 60.4242 18.2862C60.5344 18.5636 60.6967 18.8159 60.9018 19.0287C61.1069 19.2415 61.3508 19.4105 61.6195 19.5261C61.8881 19.6417 62.1764 19.7016 62.4676 19.7023L62.4698 19.6989Z" fill="#248ACB"/>
<path d="M24.8822 6.02749C24.6188 6.6564 25.0466 7.03146 25.51 7.4271C30.7299 11.8798 35.9459 16.3371 41.1577 20.7989C41.9744 21.4976 42.5344 21.4507 43.2266 20.6308C44.401 19.2392 45.5666 17.8384 46.7366 16.4423C46.8377 16.3199 46.9421 16.201 47.0499 16.0844C48.4355 14.5978 48.6566 14.5727 50.2721 15.7882C50.7343 16.1312 51.1899 16.4926 51.6599 16.8253C52.9232 17.7207 53.131 19.1843 52.1199 20.3964C50.1199 22.7886 48.1043 25.1613 46.0955 27.5443C45.6877 28.028 45.2921 28.5254 44.881 29.0068C44.2032 29.8072 43.741 29.8941 42.7544 29.5065C42.1544 29.2698 41.691 28.8353 41.2177 28.4248C34.8222 22.8766 28.4329 17.3193 22.05 11.7529C21.4822 11.2577 20.9477 11.0233 20.1555 11.1354C18.8393 11.3148 17.5046 10.9963 16.3994 10.2392C15.2942 9.48203 14.4937 8.33772 14.1467 7.01888C13.4689 4.44263 14.7733 1.67313 17.2178 0.501069C20.8422 -1.24502 25.1355 1.80692 24.8822 6.02749ZM19.4378 3.23512C18.1889 3.23512 17.1589 4.31571 17.1333 5.65357C17.11 6.89653 18.16 7.94052 19.4389 7.94624C20.7422 7.94624 21.7144 6.96742 21.7155 5.64442C21.7166 4.27454 20.7333 3.23626 19.4378 3.23626V3.23512Z" fill="#248ACB"/>
</svg>
